<svg width="34" height="34" viewBox="0 0 34 34" fill="none" xmlns="http://www.w3.org/2000/svg">
<rect width="34" height="34" rx="6.8" fill="black" fill-opacity="0.3"/>
<g clip-path="url(#clip0_3178_6513)">
<path fill-rule="evenodd" clip-rule="evenodd" d="M16.9999 18.8046L21.5074 23.3121C21.7466 23.5513 22.071 23.6857 22.4093 23.6857C22.7475 23.6857 23.0719 23.5513 23.3111 23.3121C23.5503 23.0729 23.6847 22.7485 23.6847 22.4103C23.6847 22.072 23.5503 21.7476 23.3111 21.5084L18.8019 17.0009L23.3103 12.4933C23.4286 12.3749 23.5225 12.2343 23.5866 12.0796C23.6506 11.9248 23.6836 11.759 23.6835 11.5916C23.6835 11.4241 23.6505 11.2583 23.5863 11.1036C23.5222 10.9489 23.4283 10.8084 23.3098 10.69C23.1914 10.5716 23.0508 10.4778 22.8961 10.4137C22.7414 10.3497 22.5756 10.3167 22.4081 10.3168C22.2407 10.3168 22.0749 10.3498 21.9202 10.4139C21.7655 10.4781 21.6249 10.572 21.5066 10.6905L16.9999 15.198L12.4923 10.6905C12.3748 10.5686 12.2341 10.4714 12.0786 10.4045C11.9231 10.3376 11.7558 10.3024 11.5865 10.3008C11.4172 10.2993 11.2493 10.3315 11.0926 10.3955C10.9358 10.4595 10.7934 10.5541 10.6737 10.6738C10.5539 10.7935 10.4592 10.9358 10.395 11.0924C10.3308 11.2491 10.2985 11.417 10.2998 11.5863C10.3012 11.7555 10.3363 11.9229 10.4031 12.0785C10.4698 12.234 10.5669 12.3748 10.6886 12.4925L15.1979 17.0009L10.6895 21.5093C10.5677 21.6269 10.4707 21.7677 10.4039 21.9232C10.3372 22.0788 10.3021 22.2462 10.3007 22.4154C10.2993 22.5847 10.3316 22.7526 10.3958 22.9093C10.46 23.0659 10.5547 23.2082 10.6745 23.3279C10.7943 23.4476 10.9367 23.5422 11.0934 23.6062C11.2501 23.6702 11.418 23.7024 11.5873 23.7009C11.7566 23.6993 11.9239 23.6641 12.0794 23.5972C12.235 23.5303 12.3756 23.4331 12.4932 23.3113L16.9999 18.8046Z" fill="white"/>
</g>
<defs>
<clipPath id="clip0_3178_6513">
<rect width="20.4" height="20.4" fill="white" transform="translate(6.7998 6.80078)"/>
</clipPath>
</defs>
</svg>
