<svg width="494" height="709" viewBox="0 0 494 709" fill="none" xmlns="http://www.w3.org/2000/svg">
<g opacity="0.7" filter="url(#filter0_b_3512_6056)">
<path fill-rule="evenodd" clip-rule="evenodd" d="M219.743 100.331L275.687 100.138C289.151 100.138 296.301 107.762 296.301 120.733L295.987 175.177C296.301 185.726 302.081 190.27 311.655 190.27H352.316C359.824 190.27 365.619 182.992 365.619 175.177V119.591C365.619 112.386 361.243 104.804 350.897 104.498C350.897 104.498 327.872 103.893 313.978 103.893C300.084 103.893 291.529 100.138 291.529 85.1578C291.529 70.1779 291.693 55.3973 291.693 47.8099C291.693 40.2225 284.034 33.9622 276.157 33.9622H171.049C154.908 36.5405 154.908 47.8099 154.908 58.1661L154.908 235.966C154.908 246.81 154.908 255.614 170.576 255.614L211.754 256.219C223.27 256.219 228.529 267.504 228.529 278.598C228.529 278.598 228.529 303.935 227.889 315.947C227.248 327.959 234.133 327.061 242.009 327.061H351.229C361.1 327.061 364.386 322.073 364.386 312.564V279.636C364.386 270.126 361.1 265.138 351.229 265.138L252.882 265.441C239.415 265.441 219.501 247.34 219.501 234.368L219.622 221.785L219.743 100.331Z" fill="url(#paint0_linear_3512_6056)"/>
<path fill-rule="evenodd" clip-rule="evenodd" d="M445.03 242.247L500.974 242.054C514.438 242.054 521.588 249.678 521.588 262.649L521.274 317.093C521.588 327.642 527.369 332.186 536.942 332.186H577.603C585.111 332.186 590.906 324.908 590.906 317.093V261.507C590.906 254.302 586.53 246.72 576.184 246.414C576.184 246.414 553.159 245.809 539.265 245.809C525.371 245.809 516.816 242.054 516.816 227.074C516.816 212.094 516.98 197.313 516.98 189.726C516.98 182.139 509.321 175.878 501.445 175.878H396.336C380.195 178.456 380.195 189.726 380.195 200.082L380.195 377.882C380.195 388.726 380.195 397.53 395.863 397.53L437.041 398.135C448.557 398.135 453.816 409.42 453.816 420.514C453.816 420.514 453.816 445.851 453.176 457.863C452.536 469.875 459.42 468.977 467.296 468.977H576.516C586.387 468.977 589.673 463.989 589.673 454.48V421.552C589.673 412.042 586.387 407.054 576.516 407.054L478.169 407.357C464.702 407.357 444.788 389.256 444.788 376.284L444.909 363.701L445.03 242.247Z" fill="url(#paint1_linear_3512_6056)"/>
<path fill-rule="evenodd" clip-rule="evenodd" d="M453.412 91.7449L397.468 91.9383C384.003 91.9383 376.853 84.3144 376.853 71.3429L377.167 16.8995C376.853 6.35062 371.073 1.80617 361.499 1.80617H320.839C313.33 1.80617 307.535 9.08379 307.535 16.8995V72.4849C307.535 79.6905 311.912 87.2718 322.257 87.5782C322.257 87.5782 345.283 88.1828 359.177 88.1828C373.07 88.1828 381.626 91.9384 381.626 106.918C381.626 121.898 381.461 136.679 381.461 144.266C381.461 151.854 389.121 158.114 396.997 158.114H502.106C518.246 155.536 518.246 144.266 518.246 133.91V-43.8894C518.246 -54.7336 518.246 -63.538 502.578 -63.538L461.4 -64.1426C449.884 -64.1426 444.626 -75.4278 444.626 -86.5223C444.626 -86.5223 444.626 -111.859 445.266 -123.871C445.906 -135.882 439.022 -134.985 431.146 -134.985H321.926C312.054 -134.985 308.768 -129.997 308.768 -120.488V-87.5593C308.768 -78.0497 312.054 -73.0622 321.926 -73.0622L420.272 -73.3645C433.74 -73.3645 453.653 -55.2633 453.653 -42.2919L453.533 -29.709L453.412 91.7449Z" fill="url(#paint2_linear_3512_6056)"/>
<path fill-rule="evenodd" clip-rule="evenodd" d="M145.877 428.819L89.9325 429.013C76.4678 429.013 69.3182 421.389 69.3182 408.417L69.632 353.974C69.3182 343.425 63.5377 338.88 53.9643 338.88H13.3035C5.79515 338.88 6.10352e-05 346.158 6.10352e-05 353.974V409.559C6.10352e-05 416.765 4.37657 424.346 14.7221 424.652C14.7221 424.652 37.7474 425.257 51.6414 425.257C65.5353 425.257 74.0904 429.013 74.0904 443.993C74.0904 458.973 73.9262 473.753 73.9262 481.34C73.9262 488.928 81.5856 495.188 89.4617 495.188H194.57C210.711 492.61 210.711 481.34 210.711 470.984V293.185C210.711 282.341 210.711 273.536 195.043 273.536L153.865 272.932C142.349 272.932 137.09 261.646 137.09 250.552C137.09 250.552 137.09 225.216 137.73 213.204C138.371 201.192 131.487 202.089 123.61 202.089H14.3906C4.51881 202.089 1.23325 207.077 1.23325 216.587V249.515C1.23325 259.025 4.51881 264.012 14.3906 264.012L112.737 263.71C126.205 263.71 146.118 281.811 146.118 294.782L145.997 307.365L145.877 428.819Z" fill="url(#paint3_linear_3512_6056)"/>
<path fill-rule="evenodd" clip-rule="evenodd" d="M370.614 570.716L314.67 570.909C301.205 570.909 294.056 563.285 294.056 550.314L294.369 495.87C294.056 485.321 288.275 480.777 278.702 480.777L238.041 480.777C230.532 480.777 224.737 488.054 224.737 495.87L224.737 551.456C224.737 558.661 229.114 566.242 239.459 566.549C239.459 566.549 262.485 567.154 276.379 567.154C290.273 567.154 298.828 570.909 298.828 585.889C298.828 600.869 298.664 615.65 298.664 623.237C298.664 630.824 306.323 637.085 314.199 637.085H419.308C435.448 634.506 435.448 623.237 435.448 612.881L435.448 435.081C435.448 424.237 435.448 415.433 419.781 415.433L378.602 414.828C367.086 414.828 361.828 403.543 361.828 392.448C361.828 392.448 361.828 367.112 362.468 355.1C363.108 343.088 356.224 343.986 348.348 343.986L239.128 343.986C229.256 343.986 225.971 348.973 225.971 358.483V391.411C225.971 400.921 229.256 405.909 239.128 405.909L337.474 405.606C350.942 405.606 370.856 423.707 370.856 436.679L370.735 449.262L370.614 570.716Z" fill="url(#paint4_linear_3512_6056)"/>
<path fill-rule="evenodd" clip-rule="evenodd" d="M597.042 712.632L541.098 712.825C527.633 712.825 520.483 705.201 520.483 692.23L520.797 637.786C520.483 627.237 514.703 622.693 505.129 622.693H464.469C456.96 622.693 451.165 629.971 451.165 637.786L451.165 693.372C451.165 700.577 455.542 708.158 465.887 708.465C465.887 708.465 488.912 709.07 502.806 709.07C516.7 709.07 525.255 712.825 525.255 727.805C525.255 742.785 525.091 757.566 525.091 765.153C525.091 772.74 532.751 779.001 540.627 779.001H645.735C661.876 776.422 661.876 765.153 661.876 754.797L661.876 576.997C661.876 566.153 661.876 557.349 646.208 557.349L605.03 556.744C593.514 556.744 588.255 545.459 588.255 534.364C588.255 534.364 588.255 509.028 588.896 497.016C589.536 485.004 582.652 485.902 574.776 485.902L465.556 485.902C455.684 485.902 452.398 490.889 452.398 500.399V533.327C452.398 542.837 455.684 547.825 465.556 547.825L563.902 547.522C577.37 547.522 597.283 565.623 597.283 578.595L597.162 591.178L597.042 712.632Z" fill="url(#paint5_linear_3512_6056)"/>
</g>
<defs>
<filter id="filter0_b_3512_6056" x="-38.0833" y="-173.083" width="1046.13" height="990.168" filterUnits="userSpaceOnUse" color-interpolation-filters="sRGB">
<feFlood flood-opacity="0" result="BackgroundImageFix"/>
<feGaussianBlur in="BackgroundImageFix" stdDeviation="19.0417"/>
<feComposite in2="SourceAlpha" operator="in" result="effect1_backgroundBlur_3512_6056"/>
<feBlend mode="normal" in="SourceGraphic" in2="effect1_backgroundBlur_3512_6056" result="shape"/>
</filter>
<linearGradient id="paint0_linear_3512_6056" x1="365.619" y1="180.519" x2="154.908" y2="180.519" gradientUnits="userSpaceOnUse">
<stop stop-color="#8A2BE2"/>
<stop offset="0.925" stop-color="#0A0612"/>
</linearGradient>
<linearGradient id="paint1_linear_3512_6056" x1="590.906" y1="322.435" x2="380.195" y2="322.435" gradientUnits="userSpaceOnUse">
<stop stop-color="#8A2BE2"/>
<stop offset="0.925" stop-color="#0A0612"/>
</linearGradient>
<linearGradient id="paint2_linear_3512_6056" x1="307.535" y1="11.557" x2="518.246" y2="11.557" gradientUnits="userSpaceOnUse">
<stop stop-color="#8A2BE2"/>
<stop offset="0.925" stop-color="#0A0612"/>
</linearGradient>
<linearGradient id="paint3_linear_3512_6056" x1="6.10352e-05" y1="348.631" x2="210.711" y2="348.631" gradientUnits="userSpaceOnUse">
<stop stop-color="#8A2BE2"/>
<stop offset="0.925" stop-color="#0A0612"/>
</linearGradient>
<linearGradient id="paint4_linear_3512_6056" x1="224.737" y1="490.528" x2="435.448" y2="490.528" gradientUnits="userSpaceOnUse">
<stop stop-color="#8A2BE2"/>
<stop offset="0.925" stop-color="#0A0612"/>
</linearGradient>
<linearGradient id="paint5_linear_3512_6056" x1="451.165" y1="632.444" x2="661.876" y2="632.444" gradientUnits="userSpaceOnUse">
<stop stop-color="#8A2BE2"/>
<stop offset="0.925" stop-color="#0A0612"/>
</linearGradient>
</defs>
</svg>
