<svg width="770" height="285" viewBox="0 0 770 285" fill="none" xmlns="http://www.w3.org/2000/svg">
<g opacity="0.5">
<path d="M17.2279 1.696H11.6119V5.344C11.8573 5.00267 12.2199 4.72533 12.6999 4.512C13.1799 4.288 13.6973 4.176 14.2519 4.176C15.1373 4.176 15.8573 4.36267 16.4119 4.736C16.9666 5.09867 17.3613 5.57333 17.5959 6.16C17.8413 6.736 17.9639 7.34933 17.9639 8C17.9639 8.768 17.8199 9.456 17.5319 10.064C17.2439 10.672 16.8013 11.152 16.2039 11.504C15.6173 11.856 14.8866 12.032 14.0119 12.032C12.8919 12.032 11.9853 11.744 11.2919 11.168C10.5986 10.592 10.1773 9.824 10.0279 8.864H11.4519C11.5906 9.472 11.8839 9.94667 12.3319 10.288C12.7799 10.6293 13.3453 10.8 14.0279 10.8C14.8706 10.8 15.5053 10.5493 15.9319 10.048C16.3586 9.536 16.5719 8.864 16.5719 8.032C16.5719 7.2 16.3586 6.56 15.9319 6.112C15.5053 5.65333 14.8759 5.424 14.0439 5.424C13.4786 5.424 12.9826 5.56267 12.5559 5.84C12.1399 6.10667 11.8359 6.47467 11.6439 6.944H10.2679V0.415999H17.2279V1.696ZM20.3988 6.096C20.3988 4.26133 20.6975 2.832 21.2948 1.808C21.8921 0.773333 22.9375 0.256 24.4308 0.256C25.9135 0.256 26.9535 0.773333 27.5508 1.808C28.1481 2.832 28.4468 4.26133 28.4468 6.096C28.4468 7.96267 28.1481 9.41333 27.5508 10.448C26.9535 11.4827 25.9135 12 24.4308 12C22.9375 12 21.8921 11.4827 21.2948 10.448C20.6975 9.41333 20.3988 7.96267 20.3988 6.096ZM27.0068 6.096C27.0068 5.168 26.9428 4.384 26.8148 3.744C26.6975 3.09333 26.4468 2.57067 26.0628 2.176C25.6895 1.78133 25.1455 1.584 24.4308 1.584C23.7055 1.584 23.1508 1.78133 22.7668 2.176C22.3935 2.57067 22.1428 3.09333 22.0148 3.744C21.8975 4.384 21.8388 5.168 21.8388 6.096C21.8388 7.056 21.8975 7.86133 22.0148 8.512C22.1428 9.16267 22.3935 9.68533 22.7668 10.08C23.1508 10.4747 23.7055 10.672 24.4308 10.672C25.1455 10.672 25.6895 10.4747 26.0628 10.08C26.4468 9.68533 26.6975 9.16267 26.8148 8.512C26.9428 7.86133 27.0068 7.056 27.0068 6.096ZM30.9457 6.096C30.9457 4.26133 31.2443 2.832 31.8417 1.808C32.439 0.773333 33.4843 0.256 34.9777 0.256C36.4603 0.256 37.5003 0.773333 38.0977 1.808C38.695 2.832 38.9937 4.26133 38.9937 6.096C38.9937 7.96267 38.695 9.41333 38.0977 10.448C37.5003 11.4827 36.4603 12 34.9777 12C33.4843 12 32.439 11.4827 31.8417 10.448C31.2443 9.41333 30.9457 7.96267 30.9457 6.096ZM37.5537 6.096C37.5537 5.168 37.4897 4.384 37.3617 3.744C37.2443 3.09333 36.9937 2.57067 36.6097 2.176C36.2363 1.78133 35.6923 1.584 34.9777 1.584C34.2523 1.584 33.6977 1.78133 33.3137 2.176C32.9403 2.57067 32.6897 3.09333 32.5617 3.744C32.4443 4.384 32.3857 5.168 32.3857 6.096C32.3857 7.056 32.4443 7.86133 32.5617 8.512C32.6897 9.16267 32.9403 9.68533 33.3137 10.08C33.6977 10.4747 34.2523 10.672 34.9777 10.672C35.6923 10.672 36.2363 10.4747 36.6097 10.08C36.9937 9.68533 37.2443 9.16267 37.3617 8.512C37.4897 7.86133 37.5537 7.056 37.5537 6.096Z" fill="#333333"/>
<path d="M9.4843 50.3742V49.2702L15.1003 41.4942H16.8443V49.1102H18.4443V50.3742H16.8443V52.9502H15.4043V50.3742H9.4843ZM15.4683 43.0142L11.1643 49.1102H15.4683V43.0142ZM20.3988 47.0462C20.3988 45.2115 20.6975 43.7822 21.2948 42.7582C21.8921 41.7235 22.9375 41.2062 24.4308 41.2062C25.9135 41.2062 26.9535 41.7235 27.5508 42.7582C28.1481 43.7822 28.4468 45.2115 28.4468 47.0462C28.4468 48.9129 28.1481 50.3635 27.5508 51.3982C26.9535 52.4329 25.9135 52.9502 24.4308 52.9502C22.9375 52.9502 21.8921 52.4329 21.2948 51.3982C20.6975 50.3635 20.3988 48.9129 20.3988 47.0462ZM27.0068 47.0462C27.0068 46.1182 26.9428 45.3342 26.8148 44.6942C26.6975 44.0435 26.4468 43.5209 26.0628 43.1262C25.6895 42.7315 25.1455 42.5342 24.4308 42.5342C23.7055 42.5342 23.1508 42.7315 22.7668 43.1262C22.3935 43.5209 22.1428 44.0435 22.0148 44.6942C21.8975 45.3342 21.8388 46.1182 21.8388 47.0462C21.8388 48.0062 21.8975 48.8115 22.0148 49.4622C22.1428 50.1129 22.3935 50.6355 22.7668 51.0302C23.1508 51.4249 23.7055 51.6222 24.4308 51.6222C25.1455 51.6222 25.6895 51.4249 26.0628 51.0302C26.4468 50.6355 26.6975 50.1129 26.8148 49.4622C26.9428 48.8115 27.0068 48.0062 27.0068 47.0462ZM30.9457 47.0462C30.9457 45.2115 31.2443 43.7822 31.8417 42.7582C32.439 41.7235 33.4843 41.2062 34.9777 41.2062C36.4603 41.2062 37.5003 41.7235 38.0977 42.7582C38.695 43.7822 38.9937 45.2115 38.9937 47.0462C38.9937 48.9129 38.695 50.3635 38.0977 51.3982C37.5003 52.4329 36.4603 52.9502 34.9777 52.9502C33.4843 52.9502 32.439 52.4329 31.8417 51.3982C31.2443 50.3635 30.9457 48.9129 30.9457 47.0462ZM37.5537 47.0462C37.5537 46.1182 37.4897 45.3342 37.3617 44.6942C37.2443 44.0435 36.9937 43.5209 36.6097 43.1262C36.2363 42.7315 35.6923 42.5342 34.9777 42.5342C34.2523 42.5342 33.6977 42.7315 33.3137 43.1262C32.9403 43.5209 32.6897 44.0435 32.5617 44.6942C32.4443 45.3342 32.3857 46.1182 32.3857 47.0462C32.3857 48.0062 32.4443 48.8115 32.5617 49.4622C32.6897 50.1129 32.9403 50.6355 33.3137 51.0302C33.6977 51.4249 34.2523 51.6222 34.9777 51.6222C35.6923 51.6222 36.2363 51.4249 36.6097 51.0302C36.9937 50.6355 37.2443 50.1129 37.3617 49.4622C37.4897 48.8115 37.5537 48.0062 37.5537 47.0462Z" fill="#333333"/>
<path d="M10.4449 85.2454C10.5196 84.264 10.8983 83.496 11.5809 82.9414C12.2636 82.3867 13.1489 82.1094 14.2369 82.1094C14.9623 82.1094 15.5863 82.2427 16.1089 82.5094C16.6423 82.7654 17.0423 83.1174 17.3089 83.5654C17.5863 84.0134 17.7249 84.52 17.7249 85.0854C17.7249 85.7467 17.5329 86.3174 17.1489 86.7974C16.7756 87.2774 16.2849 87.5867 15.6769 87.7254V87.8054C16.3703 87.976 16.9196 88.312 17.3249 88.8134C17.7303 89.3147 17.9329 89.9707 17.9329 90.7814C17.9329 91.3894 17.7943 91.9387 17.5169 92.4294C17.2396 92.9094 16.8236 93.288 16.2689 93.5654C15.7143 93.8427 15.0476 93.9814 14.2689 93.9814C13.1383 93.9814 12.2103 93.688 11.4849 93.1014C10.7596 92.504 10.3543 91.6614 10.2689 90.5734H11.6769C11.7516 91.2134 12.0129 91.736 12.4609 92.1414C12.9089 92.5467 13.5063 92.7494 14.2529 92.7494C14.9996 92.7494 15.5649 92.5574 15.9489 92.1734C16.3436 91.7787 16.5409 91.272 16.5409 90.6534C16.5409 89.8534 16.2743 89.2774 15.7409 88.9254C15.2076 88.5734 14.4023 88.3974 13.3249 88.3974H12.9569V87.1814H13.3409C14.3223 87.1707 15.0636 87.0107 15.5649 86.7014C16.0663 86.3814 16.3169 85.8907 16.3169 85.2294C16.3169 84.664 16.1303 84.2107 15.7569 83.8694C15.3943 83.528 14.8716 83.3574 14.1889 83.3574C13.5276 83.3574 12.9943 83.528 12.5889 83.8694C12.1836 84.2107 11.9436 84.6694 11.8689 85.2454H10.4449ZM20.3988 87.9974C20.3988 86.1627 20.6975 84.7334 21.2948 83.7094C21.8921 82.6747 22.9375 82.1574 24.4308 82.1574C25.9135 82.1574 26.9535 82.6747 27.5508 83.7094C28.1481 84.7334 28.4468 86.1627 28.4468 87.9974C28.4468 89.864 28.1481 91.3147 27.5508 92.3494C26.9535 93.384 25.9135 93.9014 24.4308 93.9014C22.9375 93.9014 21.8921 93.384 21.2948 92.3494C20.6975 91.3147 20.3988 89.864 20.3988 87.9974ZM27.0068 87.9974C27.0068 87.0694 26.9428 86.2854 26.8148 85.6454C26.6975 84.9947 26.4468 84.472 26.0628 84.0774C25.6895 83.6827 25.1455 83.4854 24.4308 83.4854C23.7055 83.4854 23.1508 83.6827 22.7668 84.0774C22.3935 84.472 22.1428 84.9947 22.0148 85.6454C21.8975 86.2854 21.8388 87.0694 21.8388 87.9974C21.8388 88.9574 21.8975 89.7627 22.0148 90.4134C22.1428 91.064 22.3935 91.5867 22.7668 91.9814C23.1508 92.376 23.7055 92.5734 24.4308 92.5734C25.1455 92.5734 25.6895 92.376 26.0628 91.9814C26.4468 91.5867 26.6975 91.064 26.8148 90.4134C26.9428 89.7627 27.0068 88.9574 27.0068 87.9974ZM30.9457 87.9974C30.9457 86.1627 31.2443 84.7334 31.8417 83.7094C32.439 82.6747 33.4843 82.1574 34.9777 82.1574C36.4603 82.1574 37.5003 82.6747 38.0977 83.7094C38.695 84.7334 38.9937 86.1627 38.9937 87.9974C38.9937 89.864 38.695 91.3147 38.0977 92.3494C37.5003 93.384 36.4603 93.9014 34.9777 93.9014C33.4843 93.9014 32.439 93.384 31.8417 92.3494C31.2443 91.3147 30.9457 89.864 30.9457 87.9974ZM37.5537 87.9974C37.5537 87.0694 37.4897 86.2854 37.3617 85.6454C37.2443 84.9947 36.9937 84.472 36.6097 84.0774C36.2363 83.6827 35.6923 83.4854 34.9777 83.4854C34.2523 83.4854 33.6977 83.6827 33.3137 84.0774C32.9403 84.472 32.6897 84.9947 32.5617 85.6454C32.4443 86.2854 32.3857 87.0694 32.3857 87.9974C32.3857 88.9574 32.4443 89.7627 32.5617 90.4134C32.6897 91.064 32.9403 91.5867 33.3137 91.9814C33.6977 92.376 34.2523 92.5734 34.9777 92.5734C35.6923 92.5734 36.2363 92.376 36.6097 91.9814C36.9937 91.5867 37.2443 91.064 37.3617 90.4134C37.4897 89.7627 37.5537 88.9574 37.5537 87.9974Z" fill="#333333"/>
<path d="M10.5197 133.684C11.8743 132.596 12.9357 131.705 13.7037 131.012C14.4717 130.308 15.117 129.577 15.6397 128.82C16.173 128.052 16.4397 127.3 16.4397 126.564C16.4397 125.87 16.269 125.326 15.9277 124.932C15.597 124.526 15.0583 124.324 14.3117 124.324C13.5863 124.324 13.021 124.553 12.6157 125.012C12.221 125.46 12.0077 126.062 11.9757 126.82H10.5677C10.6103 125.625 10.973 124.702 11.6557 124.052C12.3383 123.401 13.2183 123.076 14.2957 123.076C15.3943 123.076 16.2637 123.38 16.9037 123.988C17.5543 124.596 17.8797 125.433 17.8797 126.5C17.8797 127.385 17.613 128.249 17.0797 129.092C16.557 129.924 15.9597 130.66 15.2877 131.3C14.6157 131.929 13.757 132.665 12.7117 133.508H18.2157V134.724H10.5197V133.684ZM20.3988 128.948C20.3988 127.113 20.6975 125.684 21.2948 124.66C21.8921 123.625 22.9375 123.108 24.4308 123.108C25.9135 123.108 26.9535 123.625 27.5508 124.66C28.1481 125.684 28.4468 127.113 28.4468 128.948C28.4468 130.814 28.1481 132.265 27.5508 133.3C26.9535 134.334 25.9135 134.852 24.4308 134.852C22.9375 134.852 21.8921 134.334 21.2948 133.3C20.6975 132.265 20.3988 130.814 20.3988 128.948ZM27.0068 128.948C27.0068 128.02 26.9428 127.236 26.8148 126.596C26.6975 125.945 26.4468 125.422 26.0628 125.028C25.6895 124.633 25.1455 124.436 24.4308 124.436C23.7055 124.436 23.1508 124.633 22.7668 125.028C22.3935 125.422 22.1428 125.945 22.0148 126.596C21.8975 127.236 21.8388 128.02 21.8388 128.948C21.8388 129.908 21.8975 130.713 22.0148 131.364C22.1428 132.014 22.3935 132.537 22.7668 132.932C23.1508 133.326 23.7055 133.524 24.4308 133.524C25.1455 133.524 25.6895 133.326 26.0628 132.932C26.4468 132.537 26.6975 132.014 26.8148 131.364C26.9428 130.713 27.0068 129.908 27.0068 128.948ZM30.9457 128.948C30.9457 127.113 31.2443 125.684 31.8417 124.66C32.439 123.625 33.4843 123.108 34.9777 123.108C36.4603 123.108 37.5003 123.625 38.0977 124.66C38.695 125.684 38.9937 127.113 38.9937 128.948C38.9937 130.814 38.695 132.265 38.0977 133.3C37.5003 134.334 36.4603 134.852 34.9777 134.852C33.4843 134.852 32.439 134.334 31.8417 133.3C31.2443 132.265 30.9457 130.814 30.9457 128.948ZM37.5537 128.948C37.5537 128.02 37.4897 127.236 37.3617 126.596C37.2443 125.945 36.9937 125.422 36.6097 125.028C36.2363 124.633 35.6923 124.436 34.9777 124.436C34.2523 124.436 33.6977 124.633 33.3137 125.028C32.9403 125.422 32.6897 125.945 32.5617 126.596C32.4443 127.236 32.3857 128.02 32.3857 128.948C32.3857 129.908 32.4443 130.713 32.5617 131.364C32.6897 132.014 32.9403 132.537 33.3137 132.932C33.6977 133.326 34.2523 133.524 34.9777 133.524C35.6923 133.524 36.2363 133.326 36.6097 132.932C36.9937 132.537 37.2443 132.014 37.3617 131.364C37.4897 130.713 37.5537 129.908 37.5537 128.948Z" fill="#333333"/>
<path d="M14.3898 165.562V164.234H17.3978V175.802H15.9258V165.562H14.3898ZM20.3988 169.898C20.3988 168.063 20.6975 166.634 21.2948 165.61C21.8921 164.575 22.9375 164.058 24.4308 164.058C25.9135 164.058 26.9535 164.575 27.5508 165.61C28.1481 166.634 28.4468 168.063 28.4468 169.898C28.4468 171.764 28.1481 173.215 27.5508 174.25C26.9535 175.284 25.9135 175.802 24.4308 175.802C22.9375 175.802 21.8921 175.284 21.2948 174.25C20.6975 173.215 20.3988 171.764 20.3988 169.898ZM27.0068 169.898C27.0068 168.97 26.9428 168.186 26.8148 167.546C26.6975 166.895 26.4468 166.372 26.0628 165.978C25.6895 165.583 25.1455 165.386 24.4308 165.386C23.7055 165.386 23.1508 165.583 22.7668 165.978C22.3935 166.372 22.1428 166.895 22.0148 167.546C21.8975 168.186 21.8388 168.97 21.8388 169.898C21.8388 170.858 21.8975 171.663 22.0148 172.314C22.1428 172.964 22.3935 173.487 22.7668 173.882C23.1508 174.276 23.7055 174.474 24.4308 174.474C25.1455 174.474 25.6895 174.276 26.0628 173.882C26.4468 173.487 26.6975 172.964 26.8148 172.314C26.9428 171.663 27.0068 170.858 27.0068 169.898ZM30.9457 169.898C30.9457 168.063 31.2443 166.634 31.8417 165.61C32.439 164.575 33.4843 164.058 34.9777 164.058C36.4603 164.058 37.5003 164.575 38.0977 165.61C38.695 166.634 38.9937 168.063 38.9937 169.898C38.9937 171.764 38.695 173.215 38.0977 174.25C37.5003 175.284 36.4603 175.802 34.9777 175.802C33.4843 175.802 32.439 175.284 31.8417 174.25C31.2443 173.215 30.9457 171.764 30.9457 169.898ZM37.5537 169.898C37.5537 168.97 37.4897 168.186 37.3617 167.546C37.2443 166.895 36.9937 166.372 36.6097 165.978C36.2363 165.583 35.6923 165.386 34.9777 165.386C34.2523 165.386 33.6977 165.583 33.3137 165.978C32.9403 166.372 32.6897 166.895 32.5617 167.546C32.4443 168.186 32.3857 168.97 32.3857 169.898C32.3857 170.858 32.4443 171.663 32.5617 172.314C32.6897 172.964 32.9403 173.487 33.3137 173.882C33.6977 174.276 34.2523 174.474 34.9777 174.474C35.6923 174.474 36.2363 174.276 36.6097 173.882C36.9937 173.487 37.2443 172.964 37.3617 172.314C37.4897 171.663 37.5537 170.858 37.5537 169.898Z" fill="#333333"/>
<path d="M30.9457 210.849C30.9457 209.014 31.2443 207.585 31.8417 206.561C32.439 205.526 33.4843 205.009 34.9777 205.009C36.4603 205.009 37.5003 205.526 38.0977 206.561C38.695 207.585 38.9937 209.014 38.9937 210.849C38.9937 212.716 38.695 214.166 38.0977 215.201C37.5003 216.236 36.4603 216.753 34.9777 216.753C33.4843 216.753 32.439 216.236 31.8417 215.201C31.2443 214.166 30.9457 212.716 30.9457 210.849ZM37.5537 210.849C37.5537 209.921 37.4897 209.137 37.3617 208.497C37.2443 207.846 36.9937 207.324 36.6097 206.929C36.2363 206.534 35.6923 206.337 34.9777 206.337C34.2523 206.337 33.6977 206.534 33.3137 206.929C32.9403 207.324 32.6897 207.846 32.5617 208.497C32.4443 209.137 32.3857 209.921 32.3857 210.849C32.3857 211.809 32.4443 212.614 32.5617 213.265C32.6897 213.916 32.9403 214.438 33.3137 214.833C33.6977 215.228 34.2523 215.425 34.9777 215.425C35.6923 215.425 36.2363 215.228 36.6097 214.833C36.9937 214.438 37.2443 213.916 37.3617 213.265C37.4897 212.614 37.5537 211.809 37.5537 210.849Z" fill="#333333"/>
</g>
<rect x="112.001" y="85" width="24" height="136" rx="8" fill="#8A2BE2" fill-opacity="0.08"/>
<rect x="112.001" y="168" width="24" height="53" rx="8" fill="#8A2BE2"/>
<g filter="url(#filter0_bd_2924_7005)">
<rect x="86.001" y="229" width="76" height="36" rx="8" fill="#D0C8D8" fill-opacity="0.1" shape-rendering="crispEdges"/>
<path d="M114.121 242.242L111.293 252H109.865L107.597 244.146L105.245 252L103.831 252.014L101.101 242.242H102.459L104.587 250.516L106.939 242.242H108.367L110.607 250.488L112.749 242.242H114.121ZM122.516 247.87C122.516 248.113 122.502 248.369 122.474 248.64H116.342C116.388 249.396 116.645 249.989 117.112 250.418C117.588 250.838 118.162 251.048 118.834 251.048C119.384 251.048 119.842 250.922 120.206 250.67C120.579 250.409 120.84 250.063 120.99 249.634H122.362C122.156 250.371 121.746 250.973 121.13 251.44C120.514 251.897 119.748 252.126 118.834 252.126C118.106 252.126 117.452 251.963 116.874 251.636C116.304 251.309 115.856 250.847 115.53 250.25C115.203 249.643 115.04 248.943 115.04 248.15C115.04 247.357 115.198 246.661 115.516 246.064C115.833 245.467 116.276 245.009 116.846 244.692C117.424 244.365 118.087 244.202 118.834 244.202C119.562 244.202 120.206 244.361 120.766 244.678C121.326 244.995 121.755 245.434 122.054 245.994C122.362 246.545 122.516 247.17 122.516 247.87ZM121.2 247.604C121.2 247.119 121.092 246.703 120.878 246.358C120.663 246.003 120.369 245.737 119.996 245.56C119.632 245.373 119.226 245.28 118.778 245.28C118.134 245.28 117.583 245.485 117.126 245.896C116.678 246.307 116.421 246.876 116.356 247.604H121.2ZM131.197 247.87C131.197 248.113 131.183 248.369 131.155 248.64H125.023C125.07 249.396 125.326 249.989 125.793 250.418C126.269 250.838 126.843 251.048 127.515 251.048C128.066 251.048 128.523 250.922 128.887 250.67C129.26 250.409 129.522 250.063 129.671 249.634H131.043C130.838 250.371 130.427 250.973 129.811 251.44C129.195 251.897 128.43 252.126 127.515 252.126C126.787 252.126 126.134 251.963 125.555 251.636C124.986 251.309 124.538 250.847 124.211 250.25C123.884 249.643 123.721 248.943 123.721 248.15C123.721 247.357 123.88 246.661 124.197 246.064C124.514 245.467 124.958 245.009 125.527 244.692C126.106 244.365 126.768 244.202 127.515 244.202C128.243 244.202 128.887 244.361 129.447 244.678C130.007 244.995 130.436 245.434 130.735 245.994C131.043 246.545 131.197 247.17 131.197 247.87ZM129.881 247.604C129.881 247.119 129.774 246.703 129.559 246.358C129.344 246.003 129.05 245.737 128.677 245.56C128.313 245.373 127.907 245.28 127.459 245.28C126.815 245.28 126.264 245.485 125.807 245.896C125.359 246.307 125.102 246.876 125.037 247.604H129.881ZM137.163 252L134.153 248.612V252H132.879V241.64H134.153V247.73L137.107 244.328H138.885L135.273 248.15L138.899 252H137.163ZM143.27 243.04V241.878H145.902V252H144.614V243.04H143.27Z" fill="#333333"/>
</g>
<rect x="196.001" y="65" width="24" height="156" rx="8" fill="#8A2BE2" fill-opacity="0.08"/>
<rect x="196.001" y="130" width="24" height="91" rx="8" fill="#8A2BE2"/>
<g filter="url(#filter1_bd_2924_7005)">
<rect x="170.001" y="229" width="76" height="36" rx="8" fill="#D0C8D8" fill-opacity="0.1" shape-rendering="crispEdges"/>
<path d="M196.337 242.242L193.509 252H192.081L189.813 244.146L187.461 252L186.047 252.014L183.317 242.242H184.675L186.803 250.516L189.155 242.242H190.583L192.823 250.488L194.965 242.242H196.337ZM204.731 247.87C204.731 248.113 204.717 248.369 204.689 248.64H198.557C198.604 249.396 198.861 249.989 199.327 250.418C199.803 250.838 200.377 251.048 201.049 251.048C201.6 251.048 202.057 250.922 202.421 250.67C202.795 250.409 203.056 250.063 203.205 249.634H204.577C204.372 250.371 203.961 250.973 203.345 251.44C202.729 251.897 201.964 252.126 201.049 252.126C200.321 252.126 199.668 251.963 199.089 251.636C198.52 251.309 198.072 250.847 197.745 250.25C197.419 249.643 197.255 248.943 197.255 248.15C197.255 247.357 197.414 246.661 197.731 246.064C198.049 245.467 198.492 245.009 199.061 244.692C199.64 244.365 200.303 244.202 201.049 244.202C201.777 244.202 202.421 244.361 202.981 244.678C203.541 244.995 203.971 245.434 204.269 245.994C204.577 246.545 204.731 247.17 204.731 247.87ZM203.415 247.604C203.415 247.119 203.308 246.703 203.093 246.358C202.879 246.003 202.585 245.737 202.211 245.56C201.847 245.373 201.441 245.28 200.993 245.28C200.349 245.28 199.799 245.485 199.341 245.896C198.893 246.307 198.637 246.876 198.571 247.604H203.415ZM213.413 247.87C213.413 248.113 213.399 248.369 213.371 248.64H207.239C207.286 249.396 207.542 249.989 208.009 250.418C208.485 250.838 209.059 251.048 209.731 251.048C210.282 251.048 210.739 250.922 211.103 250.67C211.476 250.409 211.738 250.063 211.887 249.634H213.259C213.054 250.371 212.643 250.973 212.027 251.44C211.411 251.897 210.646 252.126 209.731 252.126C209.003 252.126 208.35 251.963 207.771 251.636C207.202 251.309 206.754 250.847 206.427 250.25C206.1 249.643 205.937 248.943 205.937 248.15C205.937 247.357 206.096 246.661 206.413 246.064C206.73 245.467 207.174 245.009 207.743 244.692C208.322 244.365 208.984 244.202 209.731 244.202C210.459 244.202 211.103 244.361 211.663 244.678C212.223 244.995 212.652 245.434 212.951 245.994C213.259 246.545 213.413 247.17 213.413 247.87ZM212.097 247.604C212.097 247.119 211.99 246.703 211.775 246.358C211.56 246.003 211.266 245.737 210.893 245.56C210.529 245.373 210.123 245.28 209.675 245.28C209.031 245.28 208.48 245.485 208.023 245.896C207.575 246.307 207.318 246.876 207.253 247.604H212.097ZM219.379 252L216.369 248.612V252H215.095V241.64H216.369V247.73L219.323 244.328H221.101L217.489 248.15L221.115 252H219.379ZM225.668 250.978C226.853 250.026 227.782 249.247 228.454 248.64C229.126 248.024 229.691 247.385 230.148 246.722C230.615 246.05 230.848 245.392 230.848 244.748C230.848 244.141 230.699 243.665 230.4 243.32C230.111 242.965 229.639 242.788 228.986 242.788C228.351 242.788 227.857 242.989 227.502 243.39C227.157 243.782 226.97 244.309 226.942 244.972H225.71C225.747 243.927 226.065 243.119 226.662 242.55C227.259 241.981 228.029 241.696 228.972 241.696C229.933 241.696 230.694 241.962 231.254 242.494C231.823 243.026 232.108 243.759 232.108 244.692C232.108 245.467 231.875 246.223 231.408 246.96C230.951 247.688 230.428 248.332 229.84 248.892C229.252 249.443 228.501 250.087 227.586 250.824H232.402V251.888H225.668V250.978Z" fill="#333333"/>
</g>
<rect x="280.001" y="129" width="24" height="92" rx="8" fill="#8A2BE2" fill-opacity="0.08"/>
<rect x="280.001" y="195" width="24" height="26" rx="8" fill="#8A2BE2"/>
<g filter="url(#filter2_bd_2924_7005)">
<rect x="254.001" y="229" width="76" height="36" rx="8" fill="#D0C8D8" fill-opacity="0.1" shape-rendering="crispEdges"/>
<path d="M280.241 242.242L277.413 252H275.985L273.717 244.146L271.365 252L269.951 252.014L267.221 242.242H268.579L270.707 250.516L273.059 242.242H274.487L276.727 250.488L278.869 242.242H280.241ZM288.636 247.87C288.636 248.113 288.622 248.369 288.594 248.64H282.462C282.508 249.396 282.765 249.989 283.232 250.418C283.708 250.838 284.282 251.048 284.954 251.048C285.504 251.048 285.962 250.922 286.326 250.67C286.699 250.409 286.96 250.063 287.11 249.634H288.482C288.276 250.371 287.866 250.973 287.25 251.44C286.634 251.897 285.868 252.126 284.954 252.126C284.226 252.126 283.572 251.963 282.994 251.636C282.424 251.309 281.976 250.847 281.65 250.25C281.323 249.643 281.16 248.943 281.16 248.15C281.16 247.357 281.318 246.661 281.636 246.064C281.953 245.467 282.396 245.009 282.966 244.692C283.544 244.365 284.207 244.202 284.954 244.202C285.682 244.202 286.326 244.361 286.886 244.678C287.446 244.995 287.875 245.434 288.174 245.994C288.482 246.545 288.636 247.17 288.636 247.87ZM287.32 247.604C287.32 247.119 287.212 246.703 286.998 246.358C286.783 246.003 286.489 245.737 286.116 245.56C285.752 245.373 285.346 245.28 284.898 245.28C284.254 245.28 283.703 245.485 283.246 245.896C282.798 246.307 282.541 246.876 282.476 247.604H287.32ZM297.317 247.87C297.317 248.113 297.303 248.369 297.275 248.64H291.143C291.19 249.396 291.447 249.989 291.913 250.418C292.389 250.838 292.963 251.048 293.635 251.048C294.186 251.048 294.643 250.922 295.007 250.67C295.381 250.409 295.642 250.063 295.791 249.634H297.163C296.958 250.371 296.547 250.973 295.931 251.44C295.315 251.897 294.55 252.126 293.635 252.126C292.907 252.126 292.254 251.963 291.675 251.636C291.106 251.309 290.658 250.847 290.331 250.25C290.005 249.643 289.841 248.943 289.841 248.15C289.841 247.357 290 246.661 290.317 246.064C290.635 245.467 291.078 245.009 291.647 244.692C292.226 244.365 292.889 244.202 293.635 244.202C294.363 244.202 295.007 244.361 295.567 244.678C296.127 244.995 296.557 245.434 296.855 245.994C297.163 246.545 297.317 247.17 297.317 247.87ZM296.001 247.604C296.001 247.119 295.894 246.703 295.679 246.358C295.465 246.003 295.171 245.737 294.797 245.56C294.433 245.373 294.027 245.28 293.579 245.28C292.935 245.28 292.385 245.485 291.927 245.896C291.479 246.307 291.223 246.876 291.157 247.604H296.001ZM303.283 252L300.273 248.612V252H298.999V241.64H300.273V247.73L303.227 244.328H305.005L301.393 248.15L305.019 252H303.283ZM309.698 244.426C309.764 243.567 310.095 242.895 310.692 242.41C311.29 241.925 312.064 241.682 313.016 241.682C313.651 241.682 314.197 241.799 314.654 242.032C315.121 242.256 315.471 242.564 315.704 242.956C315.947 243.348 316.068 243.791 316.068 244.286C316.068 244.865 315.9 245.364 315.564 245.784C315.238 246.204 314.808 246.475 314.276 246.596V246.666C314.883 246.815 315.364 247.109 315.718 247.548C316.073 247.987 316.25 248.561 316.25 249.27C316.25 249.802 316.129 250.283 315.886 250.712C315.644 251.132 315.28 251.463 314.794 251.706C314.309 251.949 313.726 252.07 313.044 252.07C312.055 252.07 311.243 251.813 310.608 251.3C309.974 250.777 309.619 250.04 309.544 249.088H310.776C310.842 249.648 311.07 250.105 311.462 250.46C311.854 250.815 312.377 250.992 313.03 250.992C313.684 250.992 314.178 250.824 314.514 250.488C314.86 250.143 315.032 249.699 315.032 249.158C315.032 248.458 314.799 247.954 314.332 247.646C313.866 247.338 313.161 247.184 312.218 247.184H311.896V246.12H312.232C313.091 246.111 313.74 245.971 314.178 245.7C314.617 245.42 314.836 244.991 314.836 244.412C314.836 243.917 314.673 243.521 314.346 243.222C314.029 242.923 313.572 242.774 312.974 242.774C312.396 242.774 311.929 242.923 311.574 243.222C311.22 243.521 311.01 243.922 310.944 244.426H309.698Z" fill="#333333"/>
</g>
<rect x="364.001" y="65" width="24" height="156" rx="8" fill="#8A2BE2" fill-opacity="0.08"/>
<rect x="364.001" y="98" width="24" height="123" rx="8" fill="#8A2BE2"/>
<g filter="url(#filter3_bd_2924_7005)">
<rect x="338.001" y="229" width="76" height="36" rx="8" fill="#D0C8D8" fill-opacity="0.1" shape-rendering="crispEdges"/>
<path d="M363.961 242.242L361.133 252H359.705L357.437 244.146L355.085 252L353.671 252.014L350.941 242.242H352.299L354.427 250.516L356.779 242.242H358.207L360.447 250.488L362.589 242.242H363.961ZM372.355 247.87C372.355 248.113 372.341 248.369 372.313 248.64H366.181C366.228 249.396 366.485 249.989 366.951 250.418C367.427 250.838 368.001 251.048 368.673 251.048C369.224 251.048 369.681 250.922 370.045 250.67C370.419 250.409 370.68 250.063 370.829 249.634H372.201C371.996 250.371 371.585 250.973 370.969 251.44C370.353 251.897 369.588 252.126 368.673 252.126C367.945 252.126 367.292 251.963 366.713 251.636C366.144 251.309 365.696 250.847 365.369 250.25C365.043 249.643 364.879 248.943 364.879 248.15C364.879 247.357 365.038 246.661 365.355 246.064C365.673 245.467 366.116 245.009 366.685 244.692C367.264 244.365 367.927 244.202 368.673 244.202C369.401 244.202 370.045 244.361 370.605 244.678C371.165 244.995 371.595 245.434 371.893 245.994C372.201 246.545 372.355 247.17 372.355 247.87ZM371.039 247.604C371.039 247.119 370.932 246.703 370.717 246.358C370.503 246.003 370.209 245.737 369.835 245.56C369.471 245.373 369.065 245.28 368.617 245.28C367.973 245.28 367.423 245.485 366.965 245.896C366.517 246.307 366.261 246.876 366.195 247.604H371.039ZM381.037 247.87C381.037 248.113 381.023 248.369 380.995 248.64H374.863C374.91 249.396 375.166 249.989 375.633 250.418C376.109 250.838 376.683 251.048 377.355 251.048C377.906 251.048 378.363 250.922 378.727 250.67C379.1 250.409 379.362 250.063 379.511 249.634H380.883C380.678 250.371 380.267 250.973 379.651 251.44C379.035 251.897 378.27 252.126 377.355 252.126C376.627 252.126 375.974 251.963 375.395 251.636C374.826 251.309 374.378 250.847 374.051 250.25C373.724 249.643 373.561 248.943 373.561 248.15C373.561 247.357 373.72 246.661 374.037 246.064C374.354 245.467 374.798 245.009 375.367 244.692C375.946 244.365 376.608 244.202 377.355 244.202C378.083 244.202 378.727 244.361 379.287 244.678C379.847 244.995 380.276 245.434 380.575 245.994C380.883 246.545 381.037 247.17 381.037 247.87ZM379.721 247.604C379.721 247.119 379.614 246.703 379.399 246.358C379.184 246.003 378.89 245.737 378.517 245.56C378.153 245.373 377.747 245.28 377.299 245.28C376.655 245.28 376.104 245.485 375.647 245.896C375.199 246.307 374.942 246.876 374.877 247.604H379.721ZM387.003 252L383.993 248.612V252H382.719V241.64H383.993V247.73L386.947 244.328H388.725L385.113 248.15L388.739 252H387.003ZM393.138 249.746V248.78L398.052 241.976H399.578V248.64H400.978V249.746H399.578V252H398.318V249.746H393.138ZM398.374 243.306L394.608 248.64H398.374V243.306Z" fill="#333333"/>
</g>
<rect x="448.001" y="2" width="24" height="219" rx="8" fill="#8A2BE2" fill-opacity="0.08"/>
<rect x="448.001" y="142" width="24" height="79" rx="8" fill="#8A2BE2"/>
<g filter="url(#filter4_bd_2924_7005)">
<rect x="422.001" y="229" width="76" height="36" rx="8" fill="#D0C8D8" fill-opacity="0.1" shape-rendering="crispEdges"/>
<path d="M447.968 242.242L445.14 252H443.712L441.444 244.146L439.092 252L437.678 252.014L434.948 242.242H436.306L438.434 250.516L440.786 242.242H442.214L444.454 250.488L446.596 242.242H447.968ZM456.362 247.87C456.362 248.113 456.348 248.369 456.32 248.64H450.188C450.235 249.396 450.492 249.989 450.958 250.418C451.434 250.838 452.008 251.048 452.68 251.048C453.231 251.048 453.688 250.922 454.052 250.67C454.426 250.409 454.687 250.063 454.836 249.634H456.208C456.003 250.371 455.592 250.973 454.976 251.44C454.36 251.897 453.595 252.126 452.68 252.126C451.952 252.126 451.299 251.963 450.72 251.636C450.151 251.309 449.703 250.847 449.376 250.25C449.05 249.643 448.886 248.943 448.886 248.15C448.886 247.357 449.045 246.661 449.362 246.064C449.68 245.467 450.123 245.009 450.692 244.692C451.271 244.365 451.934 244.202 452.68 244.202C453.408 244.202 454.052 244.361 454.612 244.678C455.172 244.995 455.602 245.434 455.9 245.994C456.208 246.545 456.362 247.17 456.362 247.87ZM455.046 247.604C455.046 247.119 454.939 246.703 454.724 246.358C454.51 246.003 454.216 245.737 453.842 245.56C453.478 245.373 453.072 245.28 452.624 245.28C451.98 245.28 451.43 245.485 450.972 245.896C450.524 246.307 450.268 246.876 450.202 247.604H455.046ZM465.044 247.87C465.044 248.113 465.03 248.369 465.002 248.64H458.87C458.916 249.396 459.173 249.989 459.64 250.418C460.116 250.838 460.69 251.048 461.362 251.048C461.912 251.048 462.37 250.922 462.734 250.67C463.107 250.409 463.368 250.063 463.518 249.634H464.89C464.684 250.371 464.274 250.973 463.658 251.44C463.042 251.897 462.276 252.126 461.362 252.126C460.634 252.126 459.98 251.963 459.402 251.636C458.832 251.309 458.384 250.847 458.058 250.25C457.731 249.643 457.568 248.943 457.568 248.15C457.568 247.357 457.726 246.661 458.044 246.064C458.361 245.467 458.804 245.009 459.374 244.692C459.952 244.365 460.615 244.202 461.362 244.202C462.09 244.202 462.734 244.361 463.294 244.678C463.854 244.995 464.283 245.434 464.582 245.994C464.89 246.545 465.044 247.17 465.044 247.87ZM463.728 247.604C463.728 247.119 463.62 246.703 463.406 246.358C463.191 246.003 462.897 245.737 462.524 245.56C462.16 245.373 461.754 245.28 461.306 245.28C460.662 245.28 460.111 245.485 459.654 245.896C459.206 246.307 458.949 246.876 458.884 247.604H463.728ZM471.009 252L467.999 248.612V252H466.725V241.64H467.999V247.73L470.953 244.328H472.731L469.119 248.15L472.745 252H471.009ZM483.907 242.984H478.993V246.176C479.208 245.877 479.525 245.635 479.945 245.448C480.365 245.252 480.818 245.154 481.303 245.154C482.078 245.154 482.708 245.317 483.193 245.644C483.678 245.961 484.024 246.377 484.229 246.89C484.444 247.394 484.551 247.931 484.551 248.5C484.551 249.172 484.425 249.774 484.173 250.306C483.921 250.838 483.534 251.258 483.011 251.566C482.498 251.874 481.858 252.028 481.093 252.028C480.113 252.028 479.32 251.776 478.713 251.272C478.106 250.768 477.738 250.096 477.607 249.256H478.853C478.974 249.788 479.231 250.203 479.623 250.502C480.015 250.801 480.51 250.95 481.107 250.95C481.844 250.95 482.4 250.731 482.773 250.292C483.146 249.844 483.333 249.256 483.333 248.528C483.333 247.8 483.146 247.24 482.773 246.848C482.4 246.447 481.849 246.246 481.121 246.246C480.626 246.246 480.192 246.367 479.819 246.61C479.455 246.843 479.189 247.165 479.021 247.576H477.817V241.864H483.907V242.984Z" fill="#333333"/>
</g>
<rect x="532.001" y="155" width="24" height="66" rx="8" fill="#8A2BE2" fill-opacity="0.08"/>
<rect x="532.001" y="164" width="24" height="57" rx="8" fill="#8A2BE2"/>
<g filter="url(#filter5_bd_2924_7005)">
<rect x="506.001" y="229" width="76" height="36" rx="8" fill="#D0C8D8" fill-opacity="0.1" shape-rendering="crispEdges"/>
<path d="M531.92 242.242L529.092 252H527.664L525.396 244.146L523.044 252L521.63 252.014L518.9 242.242H520.258L522.386 250.516L524.738 242.242H526.166L528.406 250.488L530.548 242.242H531.92ZM540.314 247.87C540.314 248.113 540.3 248.369 540.272 248.64H534.14C534.187 249.396 534.444 249.989 534.91 250.418C535.386 250.838 535.96 251.048 536.632 251.048C537.183 251.048 537.64 250.922 538.004 250.67C538.378 250.409 538.639 250.063 538.788 249.634H540.16C539.955 250.371 539.544 250.973 538.928 251.44C538.312 251.897 537.547 252.126 536.632 252.126C535.904 252.126 535.251 251.963 534.672 251.636C534.103 251.309 533.655 250.847 533.328 250.25C533.002 249.643 532.838 248.943 532.838 248.15C532.838 247.357 532.997 246.661 533.314 246.064C533.632 245.467 534.075 245.009 534.644 244.692C535.223 244.365 535.886 244.202 536.632 244.202C537.36 244.202 538.004 244.361 538.564 244.678C539.124 244.995 539.554 245.434 539.852 245.994C540.16 246.545 540.314 247.17 540.314 247.87ZM538.998 247.604C538.998 247.119 538.891 246.703 538.676 246.358C538.462 246.003 538.168 245.737 537.794 245.56C537.43 245.373 537.024 245.28 536.576 245.28C535.932 245.28 535.382 245.485 534.924 245.896C534.476 246.307 534.22 246.876 534.154 247.604H538.998ZM548.996 247.87C548.996 248.113 548.982 248.369 548.954 248.64H542.822C542.869 249.396 543.125 249.989 543.592 250.418C544.068 250.838 544.642 251.048 545.314 251.048C545.865 251.048 546.322 250.922 546.686 250.67C547.059 250.409 547.321 250.063 547.47 249.634H548.842C548.637 250.371 548.226 250.973 547.61 251.44C546.994 251.897 546.229 252.126 545.314 252.126C544.586 252.126 543.933 251.963 543.354 251.636C542.785 251.309 542.337 250.847 542.01 250.25C541.683 249.643 541.52 248.943 541.52 248.15C541.52 247.357 541.679 246.661 541.996 246.064C542.313 245.467 542.757 245.009 543.326 244.692C543.905 244.365 544.567 244.202 545.314 244.202C546.042 244.202 546.686 244.361 547.246 244.678C547.806 244.995 548.235 245.434 548.534 245.994C548.842 246.545 548.996 247.17 548.996 247.87ZM547.68 247.604C547.68 247.119 547.573 246.703 547.358 246.358C547.143 246.003 546.849 245.737 546.476 245.56C546.112 245.373 545.706 245.28 545.258 245.28C544.614 245.28 544.063 245.485 543.606 245.896C543.158 246.307 542.901 246.876 542.836 247.604H547.68ZM554.962 252L551.952 248.612V252H550.678V241.64H551.952V247.73L554.906 244.328H556.684L553.072 248.15L556.698 252H554.962ZM567.047 244.286C566.842 243.25 566.202 242.732 565.129 242.732C564.298 242.732 563.678 243.054 563.267 243.698C562.856 244.333 562.656 245.383 562.665 246.848C562.88 246.363 563.234 245.985 563.729 245.714C564.233 245.434 564.793 245.294 565.409 245.294C566.37 245.294 567.136 245.593 567.705 246.19C568.284 246.787 568.573 247.613 568.573 248.668C568.573 249.303 568.447 249.872 568.195 250.376C567.952 250.88 567.579 251.281 567.075 251.58C566.58 251.879 565.978 252.028 565.269 252.028C564.308 252.028 563.556 251.813 563.015 251.384C562.474 250.955 562.096 250.362 561.881 249.606C561.666 248.85 561.559 247.917 561.559 246.806C561.559 243.381 562.754 241.668 565.143 241.668C566.058 241.668 566.776 241.915 567.299 242.41C567.822 242.905 568.13 243.53 568.223 244.286H567.047ZM565.143 246.372C564.742 246.372 564.364 246.456 564.009 246.624C563.654 246.783 563.365 247.03 563.141 247.366C562.926 247.693 562.819 248.094 562.819 248.57C562.819 249.279 563.024 249.858 563.435 250.306C563.846 250.745 564.434 250.964 565.199 250.964C565.852 250.964 566.37 250.763 566.753 250.362C567.145 249.951 567.341 249.401 567.341 248.71C567.341 247.982 567.154 247.413 566.781 247.002C566.408 246.582 565.862 246.372 565.143 246.372Z" fill="#333333"/>
</g>
<rect x="616.001" y="92" width="24" height="129" rx="8" fill="#8A2BE2" fill-opacity="0.08"/>
<rect x="616.001" y="107" width="24" height="114" rx="8" fill="#8A2BE2"/>
<g filter="url(#filter6_bd_2924_7005)">
<rect x="590.001" y="229" width="76" height="36" rx="8" fill="#D0C8D8" fill-opacity="0.1" shape-rendering="crispEdges"/>
<path d="M616.542 242.242L613.714 252H612.286L610.018 244.146L607.666 252L606.252 252.014L603.522 242.242H604.88L607.008 250.516L609.36 242.242H610.788L613.028 250.488L615.17 242.242H616.542ZM624.936 247.87C624.936 248.113 624.922 248.369 624.894 248.64H618.762C618.809 249.396 619.066 249.989 619.532 250.418C620.008 250.838 620.582 251.048 621.254 251.048C621.805 251.048 622.262 250.922 622.626 250.67C623 250.409 623.261 250.063 623.41 249.634H624.782C624.577 250.371 624.166 250.973 623.55 251.44C622.934 251.897 622.169 252.126 621.254 252.126C620.526 252.126 619.873 251.963 619.294 251.636C618.725 251.309 618.277 250.847 617.95 250.25C617.624 249.643 617.46 248.943 617.46 248.15C617.46 247.357 617.619 246.661 617.936 246.064C618.254 245.467 618.697 245.009 619.266 244.692C619.845 244.365 620.508 244.202 621.254 244.202C621.982 244.202 622.626 244.361 623.186 244.678C623.746 244.995 624.176 245.434 624.474 245.994C624.782 246.545 624.936 247.17 624.936 247.87ZM623.62 247.604C623.62 247.119 623.513 246.703 623.298 246.358C623.084 246.003 622.79 245.737 622.416 245.56C622.052 245.373 621.646 245.28 621.198 245.28C620.554 245.28 620.004 245.485 619.546 245.896C619.098 246.307 618.842 246.876 618.776 247.604H623.62ZM633.618 247.87C633.618 248.113 633.604 248.369 633.576 248.64H627.444C627.491 249.396 627.747 249.989 628.214 250.418C628.69 250.838 629.264 251.048 629.936 251.048C630.487 251.048 630.944 250.922 631.308 250.67C631.681 250.409 631.943 250.063 632.092 249.634H633.464C633.259 250.371 632.848 250.973 632.232 251.44C631.616 251.897 630.851 252.126 629.936 252.126C629.208 252.126 628.555 251.963 627.976 251.636C627.407 251.309 626.959 250.847 626.632 250.25C626.305 249.643 626.142 248.943 626.142 248.15C626.142 247.357 626.301 246.661 626.618 246.064C626.935 245.467 627.379 245.009 627.948 244.692C628.527 244.365 629.189 244.202 629.936 244.202C630.664 244.202 631.308 244.361 631.868 244.678C632.428 244.995 632.857 245.434 633.156 245.994C633.464 246.545 633.618 247.17 633.618 247.87ZM632.302 247.604C632.302 247.119 632.195 246.703 631.98 246.358C631.765 246.003 631.471 245.737 631.098 245.56C630.734 245.373 630.328 245.28 629.88 245.28C629.236 245.28 628.685 245.485 628.228 245.896C627.78 246.307 627.523 246.876 627.458 247.604H632.302ZM639.584 252L636.574 248.612V252H635.3V241.64H636.574V247.73L639.528 244.328H641.306L637.694 248.15L641.32 252H639.584ZM652.257 242.872L648.365 252H647.077L651.025 242.998H645.621V241.906H652.257V242.872Z" fill="#333333"/>
</g>
<rect x="700.001" y="65" width="24" height="156" rx="8" fill="#8A2BE2" fill-opacity="0.08"/>
<rect x="700.001" y="173" width="24" height="48" rx="8" fill="#8A2BE2"/>
<g filter="url(#filter7_bd_2924_7005)">
<rect x="674.001" y="229" width="76" height="36" rx="8" fill="#D0C8D8" fill-opacity="0.1" shape-rendering="crispEdges"/>
<path d="M699.947 242.242L697.119 252H695.691L693.423 244.146L691.071 252L689.657 252.014L686.927 242.242H688.285L690.413 250.516L692.765 242.242H694.193L696.433 250.488L698.575 242.242H699.947ZM708.342 247.87C708.342 248.113 708.328 248.369 708.3 248.64H702.168C702.214 249.396 702.471 249.989 702.938 250.418C703.414 250.838 703.988 251.048 704.66 251.048C705.21 251.048 705.668 250.922 706.032 250.67C706.405 250.409 706.666 250.063 706.816 249.634H708.188C707.982 250.371 707.572 250.973 706.956 251.44C706.34 251.897 705.574 252.126 704.66 252.126C703.932 252.126 703.278 251.963 702.7 251.636C702.13 251.309 701.682 250.847 701.356 250.25C701.029 249.643 700.866 248.943 700.866 248.15C700.866 247.357 701.024 246.661 701.342 246.064C701.659 245.467 702.102 245.009 702.672 244.692C703.25 244.365 703.913 244.202 704.66 244.202C705.388 244.202 706.032 244.361 706.592 244.678C707.152 244.995 707.581 245.434 707.88 245.994C708.188 246.545 708.342 247.17 708.342 247.87ZM707.026 247.604C707.026 247.119 706.918 246.703 706.704 246.358C706.489 246.003 706.195 245.737 705.822 245.56C705.458 245.373 705.052 245.28 704.604 245.28C703.96 245.28 703.409 245.485 702.952 245.896C702.504 246.307 702.247 246.876 702.182 247.604H707.026ZM717.023 247.87C717.023 248.113 717.009 248.369 716.981 248.64H710.849C710.896 249.396 711.153 249.989 711.619 250.418C712.095 250.838 712.669 251.048 713.341 251.048C713.892 251.048 714.349 250.922 714.713 250.67C715.087 250.409 715.348 250.063 715.497 249.634H716.869C716.664 250.371 716.253 250.973 715.637 251.44C715.021 251.897 714.256 252.126 713.341 252.126C712.613 252.126 711.96 251.963 711.381 251.636C710.812 251.309 710.364 250.847 710.037 250.25C709.711 249.643 709.547 248.943 709.547 248.15C709.547 247.357 709.706 246.661 710.023 246.064C710.341 245.467 710.784 245.009 711.353 244.692C711.932 244.365 712.595 244.202 713.341 244.202C714.069 244.202 714.713 244.361 715.273 244.678C715.833 244.995 716.263 245.434 716.561 245.994C716.869 246.545 717.023 247.17 717.023 247.87ZM715.707 247.604C715.707 247.119 715.6 246.703 715.385 246.358C715.171 246.003 714.877 245.737 714.503 245.56C714.139 245.373 713.733 245.28 713.285 245.28C712.641 245.28 712.091 245.485 711.633 245.896C711.185 246.307 710.929 246.876 710.863 247.604H715.707ZM722.989 252L719.979 248.612V252H718.705V241.64H719.979V247.73L722.933 244.328H724.711L721.099 248.15L724.725 252H722.989ZM731.28 246.736C730.758 246.531 730.356 246.232 730.076 245.84C729.796 245.448 729.656 244.972 729.656 244.412C729.656 243.908 729.782 243.455 730.034 243.054C730.286 242.643 730.66 242.321 731.154 242.088C731.658 241.845 732.265 241.724 732.974 241.724C733.684 241.724 734.286 241.845 734.78 242.088C735.284 242.321 735.662 242.643 735.914 243.054C736.176 243.455 736.306 243.908 736.306 244.412C736.306 244.953 736.162 245.429 735.872 245.84C735.583 246.241 735.186 246.54 734.682 246.736C735.261 246.913 735.718 247.226 736.054 247.674C736.4 248.113 736.572 248.645 736.572 249.27C736.572 249.877 736.423 250.409 736.124 250.866C735.826 251.314 735.401 251.664 734.85 251.916C734.309 252.159 733.684 252.28 732.974 252.28C732.265 252.28 731.64 252.159 731.098 251.916C730.566 251.664 730.151 251.314 729.852 250.866C729.554 250.409 729.404 249.877 729.404 249.27C729.404 248.645 729.572 248.108 729.908 247.66C730.244 247.212 730.702 246.904 731.28 246.736ZM735.074 244.566C735.074 243.997 734.888 243.558 734.514 243.25C734.141 242.942 733.628 242.788 732.974 242.788C732.33 242.788 731.822 242.942 731.448 243.25C731.075 243.558 730.888 244.001 730.888 244.58C730.888 245.103 731.08 245.523 731.462 245.84C731.854 246.157 732.358 246.316 732.974 246.316C733.6 246.316 734.104 246.157 734.486 245.84C734.878 245.513 735.074 245.089 735.074 244.566ZM732.974 247.296C732.284 247.296 731.719 247.459 731.28 247.786C730.842 248.103 730.622 248.584 730.622 249.228C730.622 249.825 730.832 250.306 731.252 250.67C731.682 251.034 732.256 251.216 732.974 251.216C733.693 251.216 734.262 251.034 734.682 250.67C735.102 250.306 735.312 249.825 735.312 249.228C735.312 248.603 735.098 248.127 734.668 247.8C734.239 247.464 733.674 247.296 732.974 247.296Z" fill="#333333"/>
</g>
<defs>
<filter id="filter0_bd_2924_7005" x="46.001" y="189" width="156" height="116" filterUnits="userSpaceOnUse" color-interpolation-filters="sRGB">
<feFlood flood-opacity="0" result="BackgroundImageFix"/>
<feGaussianBlur in="BackgroundImageFix" stdDeviation="20"/>
<feComposite in2="SourceAlpha" operator="in" result="effect1_backgroundBlur_2924_7005"/>
<feColorMatrix in="SourceAlpha" type="matrix" values="0 0 0 0 0 0 0 0 0 0 0 0 0 0 0 0 0 0 127 0" result="hardAlpha"/>
<feOffset dx="4" dy="4"/>
<feGaussianBlur stdDeviation="8"/>
<feComposite in2="hardAlpha" operator="out"/>
<feColorMatrix type="matrix" values="0 0 0 0 0 0 0 0 0 0 0 0 0 0 0 0 0 0 0.02 0"/>
<feBlend mode="normal" in2="effect1_backgroundBlur_2924_7005" result="effect2_dropShadow_2924_7005"/>
<feBlend mode="normal" in="SourceGraphic" in2="effect2_dropShadow_2924_7005" result="shape"/>
</filter>
<filter id="filter1_bd_2924_7005" x="130.001" y="189" width="156" height="116" filterUnits="userSpaceOnUse" color-interpolation-filters="sRGB">
<feFlood flood-opacity="0" result="BackgroundImageFix"/>
<feGaussianBlur in="BackgroundImageFix" stdDeviation="20"/>
<feComposite in2="SourceAlpha" operator="in" result="effect1_backgroundBlur_2924_7005"/>
<feColorMatrix in="SourceAlpha" type="matrix" values="0 0 0 0 0 0 0 0 0 0 0 0 0 0 0 0 0 0 127 0" result="hardAlpha"/>
<feOffset dx="4" dy="4"/>
<feGaussianBlur stdDeviation="8"/>
<feComposite in2="hardAlpha" operator="out"/>
<feColorMatrix type="matrix" values="0 0 0 0 0 0 0 0 0 0 0 0 0 0 0 0 0 0 0.02 0"/>
<feBlend mode="normal" in2="effect1_backgroundBlur_2924_7005" result="effect2_dropShadow_2924_7005"/>
<feBlend mode="normal" in="SourceGraphic" in2="effect2_dropShadow_2924_7005" result="shape"/>
</filter>
<filter id="filter2_bd_2924_7005" x="214.001" y="189" width="156" height="116" filterUnits="userSpaceOnUse" color-interpolation-filters="sRGB">
<feFlood flood-opacity="0" result="BackgroundImageFix"/>
<feGaussianBlur in="BackgroundImageFix" stdDeviation="20"/>
<feComposite in2="SourceAlpha" operator="in" result="effect1_backgroundBlur_2924_7005"/>
<feColorMatrix in="SourceAlpha" type="matrix" values="0 0 0 0 0 0 0 0 0 0 0 0 0 0 0 0 0 0 127 0" result="hardAlpha"/>
<feOffset dx="4" dy="4"/>
<feGaussianBlur stdDeviation="8"/>
<feComposite in2="hardAlpha" operator="out"/>
<feColorMatrix type="matrix" values="0 0 0 0 0 0 0 0 0 0 0 0 0 0 0 0 0 0 0.02 0"/>
<feBlend mode="normal" in2="effect1_backgroundBlur_2924_7005" result="effect2_dropShadow_2924_7005"/>
<feBlend mode="normal" in="SourceGraphic" in2="effect2_dropShadow_2924_7005" result="shape"/>
</filter>
<filter id="filter3_bd_2924_7005" x="298.001" y="189" width="156" height="116" filterUnits="userSpaceOnUse" color-interpolation-filters="sRGB">
<feFlood flood-opacity="0" result="BackgroundImageFix"/>
<feGaussianBlur in="BackgroundImageFix" stdDeviation="20"/>
<feComposite in2="SourceAlpha" operator="in" result="effect1_backgroundBlur_2924_7005"/>
<feColorMatrix in="SourceAlpha" type="matrix" values="0 0 0 0 0 0 0 0 0 0 0 0 0 0 0 0 0 0 127 0" result="hardAlpha"/>
<feOffset dx="4" dy="4"/>
<feGaussianBlur stdDeviation="8"/>
<feComposite in2="hardAlpha" operator="out"/>
<feColorMatrix type="matrix" values="0 0 0 0 0 0 0 0 0 0 0 0 0 0 0 0 0 0 0.02 0"/>
<feBlend mode="normal" in2="effect1_backgroundBlur_2924_7005" result="effect2_dropShadow_2924_7005"/>
<feBlend mode="normal" in="SourceGraphic" in2="effect2_dropShadow_2924_7005" result="shape"/>
</filter>
<filter id="filter4_bd_2924_7005" x="382.001" y="189" width="156" height="116" filterUnits="userSpaceOnUse" color-interpolation-filters="sRGB">
<feFlood flood-opacity="0" result="BackgroundImageFix"/>
<feGaussianBlur in="BackgroundImageFix" stdDeviation="20"/>
<feComposite in2="SourceAlpha" operator="in" result="effect1_backgroundBlur_2924_7005"/>
<feColorMatrix in="SourceAlpha" type="matrix" values="0 0 0 0 0 0 0 0 0 0 0 0 0 0 0 0 0 0 127 0" result="hardAlpha"/>
<feOffset dx="4" dy="4"/>
<feGaussianBlur stdDeviation="8"/>
<feComposite in2="hardAlpha" operator="out"/>
<feColorMatrix type="matrix" values="0 0 0 0 0 0 0 0 0 0 0 0 0 0 0 0 0 0 0.02 0"/>
<feBlend mode="normal" in2="effect1_backgroundBlur_2924_7005" result="effect2_dropShadow_2924_7005"/>
<feBlend mode="normal" in="SourceGraphic" in2="effect2_dropShadow_2924_7005" result="shape"/>
</filter>
<filter id="filter5_bd_2924_7005" x="466.001" y="189" width="156" height="116" filterUnits="userSpaceOnUse" color-interpolation-filters="sRGB">
<feFlood flood-opacity="0" result="BackgroundImageFix"/>
<feGaussianBlur in="BackgroundImageFix" stdDeviation="20"/>
<feComposite in2="SourceAlpha" operator="in" result="effect1_backgroundBlur_2924_7005"/>
<feColorMatrix in="SourceAlpha" type="matrix" values="0 0 0 0 0 0 0 0 0 0 0 0 0 0 0 0 0 0 127 0" result="hardAlpha"/>
<feOffset dx="4" dy="4"/>
<feGaussianBlur stdDeviation="8"/>
<feComposite in2="hardAlpha" operator="out"/>
<feColorMatrix type="matrix" values="0 0 0 0 0 0 0 0 0 0 0 0 0 0 0 0 0 0 0.02 0"/>
<feBlend mode="normal" in2="effect1_backgroundBlur_2924_7005" result="effect2_dropShadow_2924_7005"/>
<feBlend mode="normal" in="SourceGraphic" in2="effect2_dropShadow_2924_7005" result="shape"/>
</filter>
<filter id="filter6_bd_2924_7005" x="550.001" y="189" width="156" height="116" filterUnits="userSpaceOnUse" color-interpolation-filters="sRGB">
<feFlood flood-opacity="0" result="BackgroundImageFix"/>
<feGaussianBlur in="BackgroundImageFix" stdDeviation="20"/>
<feComposite in2="SourceAlpha" operator="in" result="effect1_backgroundBlur_2924_7005"/>
<feColorMatrix in="SourceAlpha" type="matrix" values="0 0 0 0 0 0 0 0 0 0 0 0 0 0 0 0 0 0 127 0" result="hardAlpha"/>
<feOffset dx="4" dy="4"/>
<feGaussianBlur stdDeviation="8"/>
<feComposite in2="hardAlpha" operator="out"/>
<feColorMatrix type="matrix" values="0 0 0 0 0 0 0 0 0 0 0 0 0 0 0 0 0 0 0.02 0"/>
<feBlend mode="normal" in2="effect1_backgroundBlur_2924_7005" result="effect2_dropShadow_2924_7005"/>
<feBlend mode="normal" in="SourceGraphic" in2="effect2_dropShadow_2924_7005" result="shape"/>
</filter>
<filter id="filter7_bd_2924_7005" x="634.001" y="189" width="156" height="116" filterUnits="userSpaceOnUse" color-interpolation-filters="sRGB">
<feFlood flood-opacity="0" result="BackgroundImageFix"/>
<feGaussianBlur in="BackgroundImageFix" stdDeviation="20"/>
<feComposite in2="SourceAlpha" operator="in" result="effect1_backgroundBlur_2924_7005"/>
<feColorMatrix in="SourceAlpha" type="matrix" values="0 0 0 0 0 0 0 0 0 0 0 0 0 0 0 0 0 0 127 0" result="hardAlpha"/>
<feOffset dx="4" dy="4"/>
<feGaussianBlur stdDeviation="8"/>
<feComposite in2="hardAlpha" operator="out"/>
<feColorMatrix type="matrix" values="0 0 0 0 0 0 0 0 0 0 0 0 0 0 0 0 0 0 0.02 0"/>
<feBlend mode="normal" in2="effect1_backgroundBlur_2924_7005" result="effect2_dropShadow_2924_7005"/>
<feBlend mode="normal" in="SourceGraphic" in2="effect2_dropShadow_2924_7005" result="shape"/>
</filter>
</defs>
</svg>
