<svg width="205" height="210" viewBox="0 0 205 210" fill="none" xmlns="http://www.w3.org/2000/svg">
<g filter="url(#filter0_i_2924_7089)">
<ellipse cx="102.5" cy="105" rx="102.5" ry="105" fill="white"/>
</g>
<g filter="url(#filter1_d_2924_7089)">
<circle cx="102.656" cy="105.483" r="75" stroke="#6C5DD3" stroke-opacity="0.1" stroke-width="16" shape-rendering="crispEdges"/>
</g>
<path d="M49.5596 159.051C58.313 168.179 69.1748 174.825 81.1075 178.354C93.0401 181.883 105.645 182.177 117.718 179.208C129.792 176.238 140.93 170.106 150.07 161.395C159.209 152.684 166.044 141.686 169.923 129.451C173.801 117.217 174.593 104.154 172.223 91.5116C169.853 78.8688 164.4 67.068 156.384 57.2363" stroke="#4379EE" stroke-width="32" stroke-linecap="round"/>
<path d="M158.242 105.564C158.242 114.401 165.406 121.564 174.242 121.564C183.079 121.564 190.242 114.401 190.242 105.564H158.242ZM128.997 36.1986L135.247 21.4697L128.997 36.1986ZM100.949 14.4834H84.9492V46.4834H100.949V14.4834ZM190.242 105.564C190.242 93.656 187.953 81.8558 183.496 70.8341L153.83 82.8298C156.74 90.0264 158.242 97.7527 158.242 105.564H190.242ZM183.496 70.8341C179.04 59.8117 172.497 49.7719 164.224 41.2974L141.326 63.6506C146.665 69.1199 150.92 75.6337 153.83 82.8298L183.496 70.8341ZM164.224 41.2974C155.951 32.8222 146.108 26.0781 135.247 21.4697L122.748 50.9275C129.671 53.8653 135.988 58.1821 141.326 63.6506L164.224 41.2974ZM135.247 21.4697C124.385 16.8608 112.73 14.4834 100.949 14.4834V46.4834C108.419 46.4834 115.825 47.99 122.748 50.9275L135.247 21.4697Z" fill="#8A2BE2"/>
<g filter="url(#filter2_d_2924_7089)">
<ellipse cx="100.399" cy="105.999" rx="44.086" ry="45.1613" fill="#FAFBFF"/>
</g>
<path d="M81.4289 92.153C81.3089 91.649 81.0989 91.271 80.7989 91.019C80.5109 90.767 80.0909 90.641 79.5389 90.641C78.7109 90.641 78.0989 90.977 77.7029 91.649C77.3189 92.309 77.1209 93.389 77.1089 94.889C77.3969 94.409 77.8169 94.037 78.3689 93.773C78.9209 93.497 79.5209 93.359 80.1689 93.359C80.9489 93.359 81.6389 93.527 82.2389 93.863C82.8389 94.199 83.3069 94.691 83.6429 95.339C83.9789 95.975 84.1469 96.743 84.1469 97.643C84.1469 98.495 83.9729 99.257 83.6249 99.929C83.2889 100.589 82.7909 101.105 82.1309 101.477C81.4709 101.849 80.6849 102.035 79.7729 102.035C78.5249 102.035 77.5409 101.759 76.8209 101.207C76.1129 100.655 75.6149 99.887 75.3269 98.903C75.0509 97.907 74.9129 96.683 74.9129 95.231C74.9129 93.035 75.2909 91.379 76.0469 90.263C76.8029 89.135 77.9969 88.571 79.6289 88.571C80.8889 88.571 81.8669 88.913 82.5629 89.597C83.2589 90.281 83.6609 91.133 83.7689 92.153H81.4289ZM79.5929 95.429C78.9569 95.429 78.4229 95.615 77.9909 95.987C77.5589 96.359 77.3429 96.899 77.3429 97.607C77.3429 98.315 77.5409 98.873 77.9369 99.281C78.3449 99.689 78.9149 99.893 79.6469 99.893C80.2949 99.893 80.8049 99.695 81.1769 99.299C81.5609 98.903 81.7529 98.369 81.7529 97.697C81.7529 97.001 81.5669 96.449 81.1949 96.041C80.8349 95.633 80.3009 95.429 79.5929 95.429ZM88.3346 95.051C87.1346 94.427 86.5346 93.461 86.5346 92.153C86.5346 91.505 86.6966 90.917 87.0206 90.389C87.3566 89.849 87.8546 89.423 88.5146 89.111C89.1866 88.787 90.0026 88.625 90.9626 88.625C91.9226 88.625 92.7326 88.787 93.3926 89.111C94.0646 89.423 94.5626 89.849 94.8866 90.389C95.2226 90.917 95.3906 91.505 95.3906 92.153C95.3906 92.813 95.2286 93.395 94.9046 93.899C94.5806 94.391 94.1486 94.775 93.6086 95.051C94.2686 95.339 94.7846 95.759 95.1566 96.311C95.5286 96.863 95.7146 97.517 95.7146 98.273C95.7146 99.089 95.5046 99.803 95.0846 100.415C94.6766 101.015 94.1126 101.477 93.3926 101.801C92.6726 102.125 91.8626 102.287 90.9626 102.287C90.0626 102.287 89.2526 102.125 88.5326 101.801C87.8246 101.477 87.2606 101.015 86.8406 100.415C86.4326 99.803 86.2286 99.089 86.2286 98.273C86.2286 97.517 86.4146 96.863 86.7866 96.311C87.1586 95.747 87.6746 95.327 88.3346 95.051ZM92.9426 92.513C92.9426 91.925 92.7626 91.469 92.4026 91.145C92.0546 90.821 91.5746 90.659 90.9626 90.659C90.3626 90.659 89.8826 90.821 89.5226 91.145C89.1746 91.469 89.0006 91.931 89.0006 92.531C89.0006 93.071 89.1806 93.503 89.5406 93.827C89.9126 94.151 90.3866 94.313 90.9626 94.313C91.5386 94.313 92.0126 94.151 92.3846 93.827C92.7566 93.491 92.9426 93.053 92.9426 92.513ZM90.9626 96.149C90.2786 96.149 89.7206 96.323 89.2886 96.671C88.8686 97.019 88.6586 97.517 88.6586 98.165C88.6586 98.765 88.8626 99.257 89.2706 99.641C89.6906 100.013 90.2546 100.199 90.9626 100.199C91.6706 100.199 92.2286 100.007 92.6366 99.623C93.0446 99.239 93.2486 98.753 93.2486 98.165C93.2486 97.529 93.0386 97.037 92.6186 96.689C92.1986 96.329 91.6466 96.149 90.9626 96.149ZM99.109 102.125C98.653 102.125 98.275 101.987 97.975 101.711C97.687 101.423 97.543 101.069 97.543 100.649C97.543 100.229 97.687 99.881 97.975 99.605C98.275 99.317 98.653 99.173 99.109 99.173C99.553 99.173 99.919 99.317 100.207 99.605C100.495 99.881 100.639 100.229 100.639 100.649C100.639 101.069 100.495 101.423 100.207 101.711C99.919 101.987 99.553 102.125 99.109 102.125ZM102.417 92.333C102.477 91.133 102.897 90.209 103.677 89.561C104.469 88.901 105.507 88.571 106.791 88.571C107.667 88.571 108.417 88.727 109.041 89.039C109.665 89.339 110.133 89.753 110.445 90.281C110.769 90.797 110.931 91.385 110.931 92.045C110.931 92.801 110.733 93.443 110.337 93.971C109.953 94.487 109.491 94.835 108.951 95.015V95.087C109.647 95.303 110.187 95.687 110.571 96.239C110.967 96.791 111.165 97.499 111.165 98.363C111.165 99.083 110.997 99.725 110.661 100.289C110.337 100.853 109.851 101.297 109.203 101.621C108.567 101.933 107.799 102.089 106.899 102.089C105.543 102.089 104.439 101.747 103.587 101.063C102.735 100.379 102.285 99.371 102.237 98.039H104.685C104.709 98.627 104.907 99.101 105.279 99.461C105.663 99.809 106.185 99.983 106.845 99.983C107.457 99.983 107.925 99.815 108.249 99.479C108.585 99.131 108.753 98.687 108.753 98.147C108.753 97.427 108.525 96.911 108.069 96.599C107.613 96.287 106.905 96.131 105.945 96.131H105.423V94.061H105.945C107.649 94.061 108.501 93.491 108.501 92.351C108.501 91.835 108.345 91.433 108.033 91.145C107.733 90.857 107.295 90.713 106.719 90.713C106.155 90.713 105.717 90.869 105.405 91.181C105.105 91.481 104.931 91.865 104.883 92.333H102.417ZM112.868 92.099C112.868 91.187 113.132 90.473 113.66 89.957C114.2 89.441 114.89 89.183 115.73 89.183C116.57 89.183 117.254 89.441 117.782 89.957C118.322 90.473 118.592 91.187 118.592 92.099C118.592 93.023 118.322 93.743 117.782 94.259C117.254 94.775 116.57 95.033 115.73 95.033C114.89 95.033 114.2 94.775 113.66 94.259C113.132 93.743 112.868 93.023 112.868 92.099ZM124.424 89.399L117.35 101.999H114.902L121.958 89.399H124.424ZM115.712 90.695C115.052 90.695 114.722 91.163 114.722 92.099C114.722 93.047 115.052 93.521 115.712 93.521C116.036 93.521 116.288 93.407 116.468 93.179C116.648 92.939 116.738 92.579 116.738 92.099C116.738 91.163 116.396 90.695 115.712 90.695ZM120.77 99.281C120.77 98.357 121.034 97.643 121.562 97.139C122.102 96.623 122.792 96.365 123.632 96.365C124.472 96.365 125.15 96.623 125.666 97.139C126.194 97.643 126.458 98.357 126.458 99.281C126.458 100.205 126.194 100.925 125.666 101.441C125.15 101.957 124.472 102.215 123.632 102.215C122.78 102.215 122.09 101.957 121.562 101.441C121.034 100.925 120.77 100.205 120.77 99.281ZM123.614 97.877C122.93 97.877 122.588 98.345 122.588 99.281C122.588 100.229 122.93 100.703 123.614 100.703C124.286 100.703 124.622 100.229 124.622 99.281C124.622 98.345 124.286 97.877 123.614 97.877Z" fill="#0049C6"/>
<path d="M77.7723 124.139H74.1243L73.4523 125.999H72.3003L75.3243 117.683H76.5843L79.5963 125.999H78.4443L77.7723 124.139ZM77.4603 123.251L75.9483 119.027L74.4363 123.251H77.4603ZM82.0062 117.119V125.999H80.9142V117.119H82.0062ZM84.9594 117.119V125.999H83.8674V117.119H84.9594ZM89.6885 126.107C89.0725 126.107 88.5125 125.967 88.0085 125.687C87.5125 125.407 87.1205 125.011 86.8325 124.499C86.5525 123.979 86.4125 123.379 86.4125 122.699C86.4125 122.027 86.5565 121.435 86.8445 120.923C87.1405 120.403 87.5405 120.007 88.0445 119.735C88.5485 119.455 89.1125 119.315 89.7365 119.315C90.3605 119.315 90.9245 119.455 91.4285 119.735C91.9325 120.007 92.3285 120.399 92.6165 120.911C92.9125 121.423 93.0605 122.019 93.0605 122.699C93.0605 123.379 92.9085 123.979 92.6045 124.499C92.3085 125.011 91.9045 125.407 91.3925 125.687C90.8805 125.967 90.3125 126.107 89.6885 126.107ZM89.6885 125.147C90.0805 125.147 90.4485 125.055 90.7925 124.871C91.1365 124.687 91.4125 124.411 91.6205 124.043C91.8365 123.675 91.9445 123.227 91.9445 122.699C91.9445 122.171 91.8405 121.723 91.6325 121.355C91.4245 120.987 91.1525 120.715 90.8165 120.539C90.4805 120.355 90.1165 120.263 89.7245 120.263C89.3245 120.263 88.9565 120.355 88.6205 120.539C88.2925 120.715 88.0285 120.987 87.8285 121.355C87.6285 121.723 87.5285 122.171 87.5285 122.699C87.5285 123.235 87.6245 123.687 87.8165 124.055C88.0165 124.423 88.2805 124.699 88.6085 124.883C88.9365 125.059 89.2965 125.147 89.6885 125.147ZM94.0883 122.699C94.0883 122.019 94.2243 121.427 94.4963 120.923C94.7683 120.411 95.1443 120.015 95.6243 119.735C96.1123 119.455 96.6683 119.315 97.2923 119.315C98.1003 119.315 98.7643 119.511 99.2843 119.903C99.8123 120.295 100.16 120.839 100.328 121.535H99.1523C99.0403 121.135 98.8203 120.819 98.4923 120.587C98.1723 120.355 97.7723 120.239 97.2923 120.239C96.6683 120.239 96.1643 120.455 95.7803 120.887C95.3963 121.311 95.2043 121.915 95.2043 122.699C95.2043 123.491 95.3963 124.103 95.7803 124.535C96.1643 124.967 96.6683 125.183 97.2923 125.183C97.7723 125.183 98.1723 125.071 98.4923 124.847C98.8123 124.623 99.0323 124.303 99.1523 123.887H100.328C100.152 124.559 99.8003 125.099 99.2723 125.507C98.7443 125.907 98.0843 126.107 97.2923 126.107C96.6683 126.107 96.1123 125.967 95.6243 125.687C95.1443 125.407 94.7683 125.011 94.4963 124.499C94.2243 123.987 94.0883 123.387 94.0883 122.699ZM101.377 122.687C101.377 122.015 101.513 121.427 101.785 120.923C102.057 120.411 102.429 120.015 102.901 119.735C103.381 119.455 103.913 119.315 104.497 119.315C105.073 119.315 105.573 119.439 105.997 119.687C106.421 119.935 106.737 120.247 106.945 120.623V119.423H108.049V125.999H106.945V124.775C106.729 125.159 106.405 125.479 105.973 125.735C105.549 125.983 105.053 126.107 104.485 126.107C103.901 126.107 103.373 125.963 102.901 125.675C102.429 125.387 102.057 124.983 101.785 124.463C101.513 123.943 101.377 123.351 101.377 122.687ZM106.945 122.699C106.945 122.203 106.845 121.771 106.645 121.403C106.445 121.035 106.173 120.755 105.829 120.563C105.493 120.363 105.121 120.263 104.713 120.263C104.305 120.263 103.933 120.359 103.597 120.551C103.261 120.743 102.993 121.023 102.793 121.391C102.593 121.759 102.493 122.191 102.493 122.687C102.493 123.191 102.593 123.631 102.793 124.007C102.993 124.375 103.261 124.659 103.597 124.859C103.933 125.051 104.305 125.147 104.713 125.147C105.121 125.147 105.493 125.051 105.829 124.859C106.173 124.659 106.445 124.375 106.645 124.007C106.845 123.631 106.945 123.195 106.945 122.699ZM111.227 120.323V124.199C111.227 124.519 111.295 124.747 111.431 124.883C111.567 125.011 111.803 125.075 112.139 125.075H112.943V125.999H111.959C111.351 125.999 110.895 125.859 110.591 125.579C110.287 125.299 110.135 124.839 110.135 124.199V120.323H109.283V119.423H110.135V117.767H111.227V119.423H112.943V120.323H111.227ZM120.266 122.459C120.266 122.667 120.254 122.887 120.23 123.119H114.974C115.014 123.767 115.234 124.275 115.634 124.643C116.042 125.003 116.534 125.183 117.11 125.183C117.582 125.183 117.974 125.075 118.286 124.859C118.606 124.635 118.83 124.339 118.958 123.971H120.134C119.958 124.603 119.606 125.119 119.078 125.519C118.55 125.911 117.894 126.107 117.11 126.107C116.486 126.107 115.926 125.967 115.43 125.687C114.942 125.407 114.558 125.011 114.278 124.499C113.998 123.979 113.858 123.379 113.858 122.699C113.858 122.019 113.994 121.423 114.266 120.911C114.538 120.399 114.918 120.007 115.406 119.735C115.902 119.455 116.47 119.315 117.11 119.315C117.734 119.315 118.286 119.451 118.766 119.723C119.246 119.995 119.614 120.371 119.87 120.851C120.134 121.323 120.266 121.859 120.266 122.459ZM119.138 122.231C119.138 121.815 119.046 121.459 118.862 121.163C118.678 120.859 118.426 120.631 118.106 120.479C117.794 120.319 117.446 120.239 117.062 120.239C116.51 120.239 116.038 120.415 115.646 120.767C115.262 121.119 115.042 121.607 114.986 122.231H119.138ZM121.299 122.687C121.299 122.015 121.435 121.427 121.707 120.923C121.979 120.411 122.351 120.015 122.823 119.735C123.303 119.455 123.839 119.315 124.431 119.315C124.943 119.315 125.419 119.435 125.859 119.675C126.299 119.907 126.635 120.215 126.867 120.599V117.119H127.971V125.999H126.867V124.763C126.651 125.155 126.331 125.479 125.907 125.735C125.483 125.983 124.987 126.107 124.419 126.107C123.835 126.107 123.303 125.963 122.823 125.675C122.351 125.387 121.979 124.983 121.707 124.463C121.435 123.943 121.299 123.351 121.299 122.687ZM126.867 122.699C126.867 122.203 126.767 121.771 126.567 121.403C126.367 121.035 126.095 120.755 125.751 120.563C125.415 120.363 125.043 120.263 124.635 120.263C124.227 120.263 123.855 120.359 123.519 120.551C123.183 120.743 122.915 121.023 122.715 121.391C122.515 121.759 122.415 122.191 122.415 122.687C122.415 123.191 122.515 123.631 122.715 124.007C122.915 124.375 123.183 124.659 123.519 124.859C123.855 125.051 124.227 125.147 124.635 125.147C125.043 125.147 125.415 125.051 125.751 124.859C126.095 124.659 126.367 124.375 126.567 124.007C126.767 123.631 126.867 123.195 126.867 122.699Z" fill="#0049C6"/>
<defs>
<filter id="filter0_i_2924_7089" x="0" y="0" width="205" height="218" filterUnits="userSpaceOnUse" color-interpolation-filters="sRGB">
<feFlood flood-opacity="0" result="BackgroundImageFix"/>
<feBlend mode="normal" in="SourceGraphic" in2="BackgroundImageFix" result="shape"/>
<feColorMatrix in="SourceAlpha" type="matrix" values="0 0 0 0 0 0 0 0 0 0 0 0 0 0 0 0 0 0 127 0" result="hardAlpha"/>
<feOffset dy="8"/>
<feGaussianBlur stdDeviation="8"/>
<feComposite in2="hardAlpha" operator="arithmetic" k2="-1" k3="1"/>
<feColorMatrix type="matrix" values="0 0 0 0 0.423529 0 0 0 0 0.364706 0 0 0 0 0.827451 0 0 0 0.1 0"/>
<feBlend mode="normal" in2="shape" result="effect1_innerShadow_2924_7089"/>
</filter>
<filter id="filter1_d_2924_7089" x="13.6562" y="18.4834" width="182" height="182" filterUnits="userSpaceOnUse" color-interpolation-filters="sRGB">
<feFlood flood-opacity="0" result="BackgroundImageFix"/>
<feColorMatrix in="SourceAlpha" type="matrix" values="0 0 0 0 0 0 0 0 0 0 0 0 0 0 0 0 0 0 127 0" result="hardAlpha"/>
<feOffset dx="2" dy="4"/>
<feGaussianBlur stdDeviation="4"/>
<feComposite in2="hardAlpha" operator="out"/>
<feColorMatrix type="matrix" values="0 0 0 0 0 0 0 0 0 0 0 0 0 0 0 0 0 0 0.2 0"/>
<feBlend mode="normal" in2="BackgroundImageFix" result="effect1_dropShadow_2924_7089"/>
<feBlend mode="normal" in="SourceGraphic" in2="effect1_dropShadow_2924_7089" result="shape"/>
</filter>
<filter id="filter2_d_2924_7089" x="44.3125" y="52.8379" width="120.172" height="122.322" filterUnits="userSpaceOnUse" color-interpolation-filters="sRGB">
<feFlood flood-opacity="0" result="BackgroundImageFix"/>
<feColorMatrix in="SourceAlpha" type="matrix" values="0 0 0 0 0 0 0 0 0 0 0 0 0 0 0 0 0 0 127 0" result="hardAlpha"/>
<feOffset dx="4" dy="8"/>
<feGaussianBlur stdDeviation="8"/>
<feComposite in2="hardAlpha" operator="out"/>
<feColorMatrix type="matrix" values="0 0 0 0 0 0 0 0 0 0 0 0 0 0 0 0 0 0 0.2 0"/>
<feBlend mode="normal" in2="BackgroundImageFix" result="effect1_dropShadow_2924_7089"/>
<feBlend mode="normal" in="SourceGraphic" in2="effect1_dropShadow_2924_7089" result="shape"/>
</filter>
</defs>
</svg>
