<svg width="35" height="40" viewBox="0 0 35 40" fill="none" xmlns="http://www.w3.org/2000/svg">
<path d="M24.0001 18.667C24.0001 16.5453 23.1572 14.5104 21.6569 13.0101C20.1566 11.5098 18.1218 10.667 16 10.667C13.8783 10.667 11.8435 11.5098 10.3432 13.0101C8.84287 14.5104 8.00001 16.5453 8.00001 18.667C8.00001 28.0003 4 30.667 4 30.667H28.0001C28.0001 30.667 24.0001 28.0003 24.0001 18.667Z" stroke="black" stroke-width="2" stroke-linecap="round" stroke-linejoin="round"/>
<path d="M18.3067 36C18.0723 36.4041 17.7358 36.7395 17.331 36.9727C16.9262 37.2059 16.4672 37.3286 16 37.3286C15.5329 37.3286 15.0739 37.2059 14.6691 36.9727C14.2642 36.7395 13.9278 36.4041 13.6934 36" stroke="black" stroke-width="2" stroke-linecap="round" stroke-linejoin="round"/>
<rect x="17" width="18" height="17" rx="8.5" fill="#8A2BE2"/>
<path d="M26.6279 9.53418V5.09766L23.4902 9.53418H26.6279ZM26.6484 13V10.6074H22.3555V9.4043L26.8398 3.18359H27.8789V9.53418H29.3213V10.6074H27.8789V13H26.6484Z" fill="white"/>
</svg>
