<svg width="27" height="24" viewBox="0 0 27 24" fill="none" xmlns="http://www.w3.org/2000/svg">
<path fill-rule="evenodd" clip-rule="evenodd" d="M11.9456 8C11.9456 9.66 10.5 11 8.69561 11C6.89126 11 5.43474 9.66 5.43474 8C5.43474 6.34 6.89126 5 8.69561 5C10.5 5 11.9456 6.34 11.9456 8ZM20.6413 8C20.6413 9.66 19.1956 11 17.3913 11C15.5869 11 14.1304 9.66 14.1304 8C14.1304 6.34 15.5869 5 17.3913 5C19.1956 5 20.6413 6.34 20.6413 8ZM8.69561 13C6.163 13 1.08691 14.17 1.08691 16.5V18C1.08691 18.55 1.57604 19 2.17387 19H15.2174C15.8152 19 16.3043 18.55 16.3043 18V16.5C16.3043 14.17 11.2282 13 8.69561 13ZM16.3369 13.05C16.7173 13.02 17.076 13 17.3913 13C19.9239 13 25 14.17 25 16.5V18C25 18.55 24.5108 19 23.913 19H18.2826C18.4021 18.69 18.4782 18.35 18.4782 18V16.5C18.4782 15.03 17.6195 13.92 16.3804 13.09C16.3771 13.087 16.3738 13.083 16.3702 13.0787C16.3619 13.0688 16.3521 13.057 16.3369 13.05Z" fill="#4D4D4D"/>
</svg>
