<svg width="40" height="40" viewBox="0 0 40 40" fill="none" xmlns="http://www.w3.org/2000/svg">
<g filter="url(#filter0_b_3161_4694)">
<rect width="40" height="40" rx="8" fill="#8A2BE2"/>
<g clip-path="url(#clip0_3161_4694)">
<path d="M19 28C19 28.2652 19.1054 28.5196 19.2929 28.7071C19.4804 28.8946 19.7348 29 20 29C20.2652 29 20.5196 28.8946 20.7071 28.7071C20.8946 28.5196 21 28.2652 21 28V21H28C28.2652 21 28.5196 20.8946 28.7071 20.7071C28.8946 20.5196 29 20.2652 29 20C29 19.7348 28.8946 19.4804 28.7071 19.2929C28.5196 19.1054 28.2652 19 28 19H21V12C21 11.7348 20.8946 11.4804 20.7071 11.2929C20.5196 11.1054 20.2652 11 20 11C19.7348 11 19.4804 11.1054 19.2929 11.2929C19.1054 11.4804 19 11.7348 19 12V19H12C11.7348 19 11.4804 19.1054 11.2929 19.2929C11.1054 19.4804 11 19.7348 11 20C11 20.2652 11.1054 20.5196 11.2929 20.7071C11.4804 20.8946 11.7348 21 12 21H19V28Z" fill="white" fill-opacity="0.8"/>
</g>
</g>
<defs>
<filter id="filter0_b_3161_4694" x="-24" y="-24" width="88" height="88" filterUnits="userSpaceOnUse" color-interpolation-filters="sRGB">
<feFlood flood-opacity="0" result="BackgroundImageFix"/>
<feGaussianBlur in="BackgroundImageFix" stdDeviation="12"/>
<feComposite in2="SourceAlpha" operator="in" result="effect1_backgroundBlur_3161_4694"/>
<feBlend mode="normal" in="SourceGraphic" in2="effect1_backgroundBlur_3161_4694" result="shape"/>
</filter>
<clipPath id="clip0_3161_4694">
<rect width="24" height="24" fill="white" transform="translate(8 8)"/>
</clipPath>
</defs>
</svg>
