<svg width="27" height="24" viewBox="0 0 27 24" fill="none" xmlns="http://www.w3.org/2000/svg">
<path fill-rule="evenodd" clip-rule="evenodd" d="M21.739 3H4.34774C3.15209 3 2.17383 3.9 2.17383 5V19C2.17383 20.1 3.15209 21 4.34774 21H21.739C22.9347 21 23.913 20.1 23.913 19V5C23.913 3.9 22.9347 3 21.739 3ZM9.78252 17H6.52165C5.92383 17 5.4347 16.55 5.4347 16C5.4347 15.45 5.92383 15 6.52165 15H9.78252C10.3804 15 10.8695 15.45 10.8695 16C10.8695 16.55 10.3804 17 9.78252 17ZM9.78252 13H6.52165C5.92383 13 5.4347 12.55 5.4347 12C5.4347 11.45 5.92383 11 6.52165 11H9.78252C10.3804 11 10.8695 11.45 10.8695 12C10.8695 12.55 10.3804 13 9.78252 13ZM9.78252 9H6.52165C5.92383 9 5.4347 8.55 5.4347 8C5.4347 7.45 5.92383 7 6.52165 7H9.78252C10.3804 7 10.8695 7.45 10.8695 8C10.8695 8.55 10.3804 9 9.78252 9ZM20.326 11.12L16.8804 14.29C16.4564 14.68 15.7608 14.68 15.3369 14.29L13.8043 12.87C13.3804 12.48 13.3804 11.85 13.8043 11.46C14.2282 11.07 14.913 11.07 15.3369 11.46L16.1086 12.17L18.7934 9.7C19.2173 9.31 19.9021 9.31 20.326 9.7L20.3369 9.71C20.7499 10.1 20.7499 10.74 20.326 11.12Z" fill="black" fill-opacity="0.7"/>
</svg>
