<svg width="20" height="14" viewBox="0 0 20 14" fill="none" xmlns="http://www.w3.org/2000/svg">
<g clip-path="url(#clip0_2986_6345)">
<path fill-rule="evenodd" clip-rule="evenodd" d="M6.1251 0.21875H6.04285C5.67798 0.21875 5.35773 0.217875 5.0786 0.303625C4.77818 0.395912 4.50491 0.560351 4.28268 0.782582C4.06045 1.00481 3.89601 1.27807 3.80373 1.5785C3.71798 1.85763 3.71798 2.17788 3.71885 2.54275V2.70725C3.71798 3.07213 3.71798 3.39238 3.80373 3.6715C3.89601 3.97193 4.06045 4.24519 4.28268 4.46742C4.50491 4.68965 4.77818 4.85409 5.0786 4.94638C5.35773 5.03213 5.67798 5.03213 6.04285 5.03125H7.95735C8.32223 5.03213 8.64248 5.03213 8.9216 4.94638C9.22203 4.85409 9.49529 4.68965 9.71752 4.46742C9.93975 4.24519 10.1042 3.97193 10.1965 3.6715C10.2822 3.39238 10.2822 3.07213 10.2814 2.70725V2.54275C10.2822 2.17788 10.2822 1.85763 10.1965 1.5785C10.1042 1.27807 9.93975 1.00481 9.71752 0.782582C9.49529 0.560351 9.22203 0.395912 8.9216 0.303625C8.64248 0.217875 8.32223 0.21875 7.95735 0.21875H6.1251ZM5.46448 1.55838C5.52835 1.53825 5.62985 1.53125 6.1251 1.53125H7.8751L8.53573 1.55838C8.63142 1.58772 8.71847 1.64008 8.78925 1.71085C8.86002 1.78163 8.91238 1.86868 8.94173 1.96438C8.96098 2.02825 8.96885 2.12975 8.96885 2.625L8.94173 3.28563C8.91238 3.38132 8.86002 3.46837 8.78925 3.53915C8.71847 3.60992 8.63142 3.66228 8.53573 3.69163C8.47185 3.71175 8.37035 3.71875 7.8751 3.71875H6.1251C5.62898 3.71875 5.52835 3.71175 5.46448 3.69163C5.36878 3.66228 5.28173 3.60992 5.21096 3.53915C5.14018 3.46837 5.08782 3.38132 5.05848 3.28563C5.03835 3.22175 5.03135 3.12113 5.03135 2.625L5.05848 1.96438C5.08782 1.86868 5.14018 1.78163 5.21096 1.71085C5.28173 1.64008 5.36878 1.58772 5.46448 1.55838ZM2.40635 2.625C2.40635 2.30563 2.03623 2.05188 1.8341 2.2995C1.68637 2.48092 1.5582 2.67743 1.45173 2.88575C1.25398 3.27425 1.17085 3.69425 1.13235 4.17288C1.09473 4.6375 1.09473 5.2115 1.09473 5.922V8.953L1.13235 10.7021C1.17173 11.1807 1.25398 11.6007 1.45173 11.9893C1.76633 12.6067 2.26836 13.1088 2.88585 13.4234C3.27435 13.6211 3.69435 13.7043 4.17298 13.7428C4.6376 13.7804 5.2116 13.7804 5.9221 13.7804H8.0781L9.82723 13.7428C10.3059 13.7034 10.7259 13.6211 11.1144 13.4234C11.7318 13.1088 12.2339 12.6067 12.5485 11.9893C12.7462 11.6007 12.8294 11.1807 12.8679 10.7021C12.9055 10.2375 12.9055 9.6635 12.9055 8.953V5.922L12.8679 4.17288C12.8285 3.69425 12.7462 3.27425 12.5485 2.88575C12.442 2.67743 12.3138 2.48092 12.1661 2.2995C11.964 2.05188 11.5939 2.30563 11.5939 2.625V8.925L11.5606 10.5954C11.5282 10.9926 11.4679 11.221 11.3795 11.3934C11.1907 11.7637 10.8897 12.0648 10.5194 12.2535C10.347 12.3419 10.1186 12.4023 9.72135 12.4346C9.31623 12.4679 8.79648 12.4679 8.05098 12.4679H5.9501C5.2046 12.4679 4.68398 12.4679 4.27973 12.4346C3.88248 12.4023 3.6541 12.3419 3.48173 12.2535C3.11141 12.0648 2.81033 11.7637 2.6216 11.3934C2.53323 11.2201 2.47285 10.9926 2.44048 10.5954C2.40723 10.1903 2.40723 9.6705 2.40723 8.925L2.40635 2.625Z" fill="#8A2BE2"/>
</g>
<defs>
<clipPath id="clip0_2986_6345">
<rect width="14" height="14" fill="white"/>
</clipPath>
</defs>
</svg>
