<svg width="45" height="45" viewBox="0 0 45 45" fill="none" xmlns="http://www.w3.org/2000/svg">
<circle cx="22.5" cy="22.5" r="22.5" fill="#E5E5E5"/>
<path d="M26.7004 30.7305H17.3004C16.5604 30.7305 15.8104 30.2005 15.5604 29.5105L11.4204 17.9205C10.9104 16.4605 11.2804 15.7905 11.6804 15.4905C12.0804 15.1905 12.8304 15.0105 14.0904 15.9105L17.9904 18.7005C18.1104 18.7705 18.2204 18.8005 18.3004 18.7805C18.3904 18.7505 18.4604 18.6705 18.5104 18.5305L20.2704 13.8405C20.8004 12.4405 21.5804 12.2305 22.0004 12.2305C22.4204 12.2305 23.2004 12.4405 23.7304 13.8405L25.4904 18.5305C25.5404 18.6605 25.6104 18.7505 25.7004 18.7805C25.7904 18.8105 25.9004 18.7805 26.0104 18.6905L29.6704 16.0805C31.0104 15.1205 31.7904 15.3105 32.2204 15.6205C32.6404 15.9405 33.0304 16.6505 32.4804 18.2005L28.4404 29.5105C28.1904 30.2005 27.4404 30.7305 26.7004 30.7305ZM12.6804 16.8105C12.7004 16.9505 12.7404 17.1505 12.8404 17.4105L16.9804 29.0005C17.0204 29.1005 17.2004 29.2305 17.3004 29.2305H26.7004C26.8104 29.2305 26.9904 29.1005 27.0204 29.0005L31.0604 17.7005C31.2004 17.3205 31.2404 17.0605 31.2504 16.9105C31.1004 16.9605 30.8704 17.0705 30.5404 17.3105L26.8804 19.9205C26.3804 20.2705 25.7904 20.3805 25.2604 20.2205C24.7304 20.0605 24.3004 19.6405 24.0804 19.0705L22.3204 14.3805C22.1904 14.0305 22.0704 13.8605 22.0004 13.7805C21.9304 13.8605 21.8104 14.0305 21.6804 14.3705L19.9204 19.0605C19.7104 19.6305 19.2804 20.0505 18.7404 20.2105C18.2104 20.3705 17.6104 20.2605 17.1204 19.9105L13.2204 17.1205C12.9904 16.9605 12.8104 16.8605 12.6804 16.8105Z" fill="#292D32"/>
<path d="M27.5 33.75H16.5C16.09 33.75 15.75 33.41 15.75 33C15.75 32.59 16.09 32.25 16.5 32.25H27.5C27.91 32.25 28.25 32.59 28.25 33C28.25 33.41 27.91 33.75 27.5 33.75Z" fill="#292D32"/>
<path d="M24.5 25.75H19.5C19.09 25.75 18.75 25.41 18.75 25C18.75 24.59 19.09 24.25 19.5 24.25H24.5C24.91 24.25 25.25 24.59 25.25 25C25.25 25.41 24.91 25.75 24.5 25.75Z" fill="#292D32"/>
</svg>
