<svg width="398" height="653" viewBox="0 0 398 653" fill="none" xmlns="http://www.w3.org/2000/svg">
<g opacity="0.1" filter="url(#filter0_f_2326_3482)">
<path fill-rule="evenodd" clip-rule="evenodd" d="M256.533 512.271L123.022 512.695C92.9248 512.695 55.7913 466.356 55.7913 437.899L56.4928 338.204C55.7914 315.062 42.8704 305.092 21.4714 305.092H-48.2639C-65.0469 305.092 -78.0004 321.058 -78.0004 338.204V443.225C-78.0004 459.033 -69.628 478.485 -46.5031 479.157C-46.5031 479.157 -3.49637 480.191 27.5603 480.191C58.6169 480.191 87.6107 509.875 87.6107 542.738C87.6107 575.601 87.2438 603.796 87.2438 620.441C87.2438 637.086 102.954 648 120.559 648L356.915 648C392.993 642.344 392.993 617.621 392.993 594.901L392.993 218.947C392.993 195.157 398.634 169.284 363.613 169.284L265.928 168.875C240.186 168.875 222.791 135.656 222.791 111.317C222.791 111.317 222.791 58.5546 224.222 32.2029C225.653 5.85111 204.625 5 187.02 5L-45.8338 5C-67.8999 5 -75.244 15.9417 -75.244 36.8039L-75.244 109.042C-75.244 129.904 -67.8999 140.846 -45.8338 140.846L159.894 140.183C228.948 138.678 255.777 191.141 257.073 236.553L256.803 278.259L256.533 512.271ZM255.777 31.989L255.777 111.961C255.777 126.706 268.977 138.678 285.236 138.678L363.534 138.678C379.793 138.678 392.993 126.706 392.993 111.961L392.993 31.989C392.993 17.2437 379.793 5.27178 363.534 5.27178L285.236 5.27178C268.977 5.27178 255.777 17.2437 255.777 31.989Z" fill="black"/>
<path d="M-76.362 621.283V538.08C-76.362 523.335 -63.1617 511.363 -46.9032 511.363H26.1082C42.3667 511.363 55.567 523.335 55.567 538.08V621.283C55.567 636.028 42.3667 648 26.1082 648H-46.9032C-63.1617 648 -76.362 636.028 -76.362 621.283Z" fill="black"/>
<path fill-rule="evenodd" clip-rule="evenodd" d="M256.533 512.271L123.022 512.695C92.9248 512.695 55.7913 466.356 55.7913 437.899L56.4928 338.204C55.7914 315.062 42.8704 305.092 21.4714 305.092H-48.2639C-65.0469 305.092 -78.0004 321.058 -78.0004 338.204V443.225C-78.0004 459.033 -69.628 478.485 -46.5031 479.157C-46.5031 479.157 -3.49637 480.191 27.5603 480.191C58.6169 480.191 87.6107 509.875 87.6107 542.738C87.6107 575.601 87.2438 603.796 87.2438 620.441C87.2438 637.086 102.954 648 120.559 648L356.915 648C392.993 642.344 392.993 617.621 392.993 594.901L392.993 218.947C392.993 195.157 398.634 169.284 363.613 169.284L265.928 168.875C240.186 168.875 222.791 135.656 222.791 111.317C222.791 111.317 222.791 58.5546 224.222 32.2029C225.653 5.85111 204.625 5 187.02 5L-45.8338 5C-67.8999 5 -75.244 15.9417 -75.244 36.8039L-75.244 109.042C-75.244 129.904 -67.8999 140.846 -45.8338 140.846L159.894 140.183C228.948 138.678 255.777 191.141 257.073 236.553L256.803 278.259L256.533 512.271ZM255.777 31.989L255.777 111.961C255.777 126.706 268.977 138.678 285.236 138.678L363.534 138.678C379.793 138.678 392.993 126.706 392.993 111.961L392.993 31.989C392.993 17.2437 379.793 5.27178 363.534 5.27178L285.236 5.27178C268.977 5.27178 255.777 17.2437 255.777 31.989Z" stroke="white" stroke-width="1.12478" stroke-miterlimit="1.5" stroke-linecap="round" stroke-linejoin="round"/>
<path d="M-76.362 621.283V538.08C-76.362 523.335 -63.1617 511.363 -46.9032 511.363H26.1082C42.3667 511.363 55.567 523.335 55.567 538.08V621.283C55.567 636.028 42.3667 648 26.1082 648H-46.9032C-63.1617 648 -76.362 636.028 -76.362 621.283Z" stroke="white" stroke-width="1.12478" stroke-miterlimit="1.5" stroke-linecap="round" stroke-linejoin="round"/>
</g>
<defs>
<filter id="filter0_f_2326_3482" x="-82.3118" y="0.688229" width="479.952" height="651.624" filterUnits="userSpaceOnUse" color-interpolation-filters="sRGB">
<feFlood flood-opacity="0" result="BackgroundImageFix"/>
<feBlend mode="normal" in="SourceGraphic" in2="BackgroundImageFix" result="shape"/>
<feGaussianBlur stdDeviation="1.87464" result="effect1_foregroundBlur_2326_3482"/>
</filter>
</defs>
</svg>
