<svg width="35" height="34" viewBox="0 0 35 34" fill="none" xmlns="http://www.w3.org/2000/svg">
<rect x="0.90332" width="34" height="34" rx="9.71429" fill="white"/>
<path d="M10.6176 10.9277H16.689C17.0111 10.9277 17.3199 11.0557 17.5477 11.2834C17.7754 11.5111 17.9033 11.82 17.9033 12.142C17.9033 12.4641 17.7754 12.7729 17.5477 13.0006C17.3199 13.2284 17.0111 13.3563 16.689 13.3563H10.6176C10.2956 13.3563 9.9867 13.2284 9.75898 13.0006C9.53125 12.7729 9.40332 12.4641 9.40332 12.142C9.40332 11.82 9.53125 11.5111 9.75898 11.2834C9.9867 11.0557 10.2956 10.9277 10.6176 10.9277ZM19.1176 20.642H25.189C25.5111 20.642 25.8199 20.77 26.0477 20.9977C26.2754 21.2254 26.4033 21.5343 26.4033 21.8563C26.4033 22.1784 26.2754 22.4872 26.0477 22.7149C25.8199 22.9427 25.5111 23.0706 25.189 23.0706H19.1176C18.7956 23.0706 18.4867 22.9427 18.259 22.7149C18.0313 22.4872 17.9033 22.1784 17.9033 21.8563C17.9033 21.5343 18.0313 21.2254 18.259 20.9977C18.4867 20.77 18.7956 20.642 19.1176 20.642ZM10.6176 15.7849H25.189C25.5111 15.7849 25.8199 15.9128 26.0477 16.1405C26.2754 16.3683 26.4033 16.6771 26.4033 16.9992C26.4033 17.3212 26.2754 17.6301 26.0477 17.8578C25.8199 18.0855 25.5111 18.2134 25.189 18.2134H10.6176C10.2956 18.2134 9.9867 18.0855 9.75898 17.8578C9.53125 17.6301 9.40332 17.3212 9.40332 16.9992C9.40332 16.6771 9.53125 16.3683 9.75898 16.1405C9.9867 15.9128 10.2956 15.7849 10.6176 15.7849Z" fill="#8A2BE2"/>
</svg>
