<svg width="638" height="384" viewBox="0 0 638 384" fill="none" xmlns="http://www.w3.org/2000/svg">
<g opacity="0.7" filter="url(#filter0_b_3512_6072)">
<path fill-rule="evenodd" clip-rule="evenodd" d="M219.743 235.331L275.687 235.138C289.151 235.138 296.301 242.762 296.301 255.733L295.987 310.177C296.301 320.726 302.081 325.27 311.655 325.27H352.316C359.824 325.27 365.619 317.992 365.619 310.177V254.591C365.619 247.386 361.243 239.804 350.897 239.498C350.897 239.498 327.872 238.893 313.978 238.893C300.084 238.893 291.529 235.138 291.529 220.158C291.529 205.178 291.693 190.397 291.693 182.81C291.693 175.223 284.034 168.962 276.157 168.962H171.049C154.908 171.54 154.908 182.81 154.908 193.166L154.908 370.966C154.908 381.81 154.908 390.614 170.576 390.614L211.754 391.219C223.27 391.219 228.529 402.504 228.529 413.598C228.529 413.598 228.529 438.935 227.889 450.947C227.248 462.959 234.133 462.061 242.009 462.061H351.229C361.1 462.061 364.386 457.073 364.386 447.564V414.636C364.386 405.126 361.1 400.138 351.229 400.138L252.882 400.441C239.415 400.441 219.501 382.34 219.501 369.368L219.622 356.785L219.743 235.331Z" fill="url(#paint0_linear_3512_6072)"/>
<path fill-rule="evenodd" clip-rule="evenodd" d="M445.03 377.247L500.974 377.054C514.438 377.054 521.588 384.678 521.588 397.649L521.274 452.093C521.588 462.642 527.369 467.186 536.942 467.186H577.603C585.111 467.186 590.906 459.908 590.906 452.093V396.507C590.906 389.302 586.53 381.72 576.184 381.414C576.184 381.414 553.159 380.809 539.265 380.809C525.371 380.809 516.816 377.054 516.816 362.074C516.816 347.094 516.98 332.313 516.98 324.726C516.98 317.139 509.321 310.878 501.445 310.878H396.336C380.195 313.456 380.195 324.726 380.195 335.082L380.195 512.882C380.195 523.726 380.195 532.53 395.863 532.53L437.041 533.135C448.557 533.135 453.816 544.42 453.816 555.514C453.816 555.514 453.816 580.851 453.176 592.863C452.536 604.875 459.42 603.977 467.296 603.977H576.516C586.387 603.977 589.673 598.989 589.673 589.48V556.552C589.673 547.042 586.387 542.054 576.516 542.054L478.169 542.357C464.702 542.357 444.788 524.256 444.788 511.284L444.909 498.701L445.03 377.247Z" fill="url(#paint1_linear_3512_6072)"/>
<path fill-rule="evenodd" clip-rule="evenodd" d="M679.84 368.661L623.895 368.854C610.431 368.854 603.281 361.23 603.281 348.259L603.595 293.816C603.281 283.267 597.501 278.722 587.927 278.722H547.266C539.758 278.722 533.963 286 533.963 293.816V349.401C533.963 356.606 538.339 364.188 548.685 364.494C548.685 364.494 571.71 365.099 585.604 365.099C599.498 365.099 608.053 368.854 608.053 383.834C608.053 398.814 607.889 413.595 607.889 421.182C607.889 428.77 615.548 435.03 623.425 435.03H728.533C744.674 432.452 744.674 421.182 744.674 410.826V233.027C744.674 222.182 744.674 213.378 729.006 213.378L687.828 212.773C676.312 212.773 671.053 201.488 671.053 190.394C671.053 190.394 671.053 165.057 671.693 153.045C672.334 141.034 665.449 141.931 657.573 141.931H548.354C538.482 141.931 535.196 146.919 535.196 156.428V189.357C535.196 198.866 538.482 203.854 548.354 203.854L646.7 203.552C660.167 203.552 680.081 221.653 680.081 234.624L679.96 247.207L679.84 368.661Z" fill="url(#paint2_linear_3512_6072)"/>
<path fill-rule="evenodd" clip-rule="evenodd" d="M453.412 226.745L397.468 226.938C384.003 226.938 376.853 219.314 376.853 206.343L377.167 151.9C376.853 141.351 371.073 136.806 361.499 136.806H320.839C313.33 136.806 307.535 144.084 307.535 151.9V207.485C307.535 214.69 311.912 222.272 322.257 222.578C322.257 222.578 345.283 223.183 359.177 223.183C373.07 223.183 381.626 226.938 381.626 241.918C381.626 256.898 381.461 271.679 381.461 279.266C381.461 286.854 389.121 293.114 396.997 293.114H502.106C518.246 290.536 518.246 279.266 518.246 268.91V91.1106C518.246 80.2664 518.246 71.462 502.578 71.462L461.4 70.8574C449.884 70.8574 444.626 59.5722 444.626 48.4777C444.626 48.4777 444.626 23.1414 445.266 11.1295C445.906 -0.882452 439.022 0.0151753 431.146 0.0151753H321.926C312.054 0.0151753 308.768 5.00272 308.768 14.5124V47.4407C308.768 56.9503 312.054 61.9378 321.926 61.9378L420.272 61.6355C433.74 61.6355 453.653 79.7367 453.653 92.7081L453.533 105.291L453.412 226.745Z" fill="url(#paint3_linear_3512_6072)"/>
<path fill-rule="evenodd" clip-rule="evenodd" d="M145.877 563.819L89.9325 564.013C76.4678 564.013 69.3182 556.389 69.3182 543.417L69.632 488.974C69.3182 478.425 63.5377 473.88 53.9643 473.88H13.3035C5.79515 473.88 6.10352e-05 481.158 6.10352e-05 488.974V544.559C6.10352e-05 551.765 4.37657 559.346 14.7221 559.652C14.7221 559.652 37.7474 560.257 51.6414 560.257C65.5353 560.257 74.0904 564.013 74.0904 578.993C74.0904 593.973 73.9262 608.753 73.9262 616.34C73.9262 623.928 81.5856 630.188 89.4617 630.188H194.57C210.711 627.61 210.711 616.34 210.711 605.984V428.185C210.711 417.341 210.711 408.536 195.043 408.536L153.865 407.932C142.349 407.932 137.09 396.646 137.09 385.552C137.09 385.552 137.09 360.216 137.73 348.204C138.371 336.192 131.487 337.089 123.61 337.089H14.3906C4.51881 337.089 1.23325 342.077 1.23325 351.587V384.515C1.23325 394.025 4.51881 399.012 14.3906 399.012L112.737 398.71C126.205 398.71 146.118 416.811 146.118 429.782L145.997 442.365L145.877 563.819Z" fill="url(#paint4_linear_3512_6072)"/>
</g>
<defs>
<filter id="filter0_b_3512_6072" x="-38.0833" y="-38.0833" width="1046.13" height="990.168" filterUnits="userSpaceOnUse" color-interpolation-filters="sRGB">
<feFlood flood-opacity="0" result="BackgroundImageFix"/>
<feGaussianBlur in="BackgroundImageFix" stdDeviation="19.0417"/>
<feComposite in2="SourceAlpha" operator="in" result="effect1_backgroundBlur_3512_6072"/>
<feBlend mode="normal" in="SourceGraphic" in2="effect1_backgroundBlur_3512_6072" result="shape"/>
</filter>
<linearGradient id="paint0_linear_3512_6072" x1="365.619" y1="315.519" x2="154.908" y2="315.519" gradientUnits="userSpaceOnUse">
<stop stop-color="#8A2BE2"/>
<stop offset="0.925" stop-color="#0A0612"/>
</linearGradient>
<linearGradient id="paint1_linear_3512_6072" x1="590.906" y1="457.435" x2="380.195" y2="457.435" gradientUnits="userSpaceOnUse">
<stop stop-color="#8A2BE2"/>
<stop offset="0.925" stop-color="#0A0612"/>
</linearGradient>
<linearGradient id="paint2_linear_3512_6072" x1="533.963" y1="288.473" x2="744.674" y2="288.473" gradientUnits="userSpaceOnUse">
<stop stop-color="#8A2BE2"/>
<stop offset="0.925" stop-color="#0A0612"/>
</linearGradient>
<linearGradient id="paint3_linear_3512_6072" x1="307.535" y1="146.557" x2="518.246" y2="146.557" gradientUnits="userSpaceOnUse">
<stop stop-color="#8A2BE2"/>
<stop offset="0.925" stop-color="#0A0612"/>
</linearGradient>
<linearGradient id="paint4_linear_3512_6072" x1="6.10352e-05" y1="483.631" x2="210.711" y2="483.631" gradientUnits="userSpaceOnUse">
<stop stop-color="#8A2BE2"/>
<stop offset="0.925" stop-color="#0A0612"/>
</linearGradient>
</defs>
</svg>
