<svg width="25" height="34" viewBox="0 0 25 34" fill="none" xmlns="http://www.w3.org/2000/svg">
<path fill-rule="evenodd" clip-rule="evenodd" d="M17.2412 26.3015L10.6292 26.3239C9.03787 26.3239 8.19288 25.4395 8.19288 23.9349L8.22997 17.6197C8.19288 16.3961 7.50969 15.8689 6.37823 15.8689H1.5726C0.685207 15.8689 0.000297546 16.7131 0.000297546 17.6197V24.0674C0.000297546 24.9032 0.517548 25.7826 1.74026 25.8181C1.74026 25.8181 4.46158 25.8883 6.10369 25.8883C7.74579 25.8883 8.75689 26.3239 8.75689 28.0615C8.75689 29.7991 8.73749 31.5136 8.73749 32.3937C8.73749 33.2738 9.64273 34 10.5736 34H22.9962C24.9038 33.7009 24.9038 32.3937 24.9038 31.1924V10.5684C24.9038 9.31056 24.9038 8.28929 23.0521 8.28929L18.1853 8.21916C16.8242 8.21916 16.2027 6.91013 16.2027 5.62321C16.2027 5.62321 16.2027 2.6843 16.2784 1.29097C16.354 -0.102361 15.5404 0.00176027 14.6096 0.00176027H1.70109C0.534359 0.00176027 0.146044 0.580295 0.146044 1.68337V5.50292C0.146044 6.606 0.534359 7.18453 1.70109 7.18453L13.3244 7.14947C14.9162 7.14947 17.2697 9.24912 17.2697 10.7537L17.2554 12.2133L17.2412 26.3015ZM17.9468 1.42879V5.20988C17.9468 5.98952 18.6448 6.62253 19.5044 6.62253H23.3462C24.2058 6.62253 24.9038 5.98952 24.9038 5.20988V1.42879C24.9038 0.649141 24.2058 0.0161305 23.3462 0.0161305H19.5044C18.6448 0.0161305 17.9468 0.649141 17.9468 1.42879Z" fill="white"/>
<path d="M0.161489 32.5873V28.8591C0.161489 28.0794 0.859449 27.4464 1.71911 27.4464H5.50498C6.36464 27.4464 7.0626 28.0794 7.0626 28.8591V32.5873C7.0626 33.367 6.36464 34 5.50498 34H1.71911C0.859449 34 0.161489 33.367 0.161489 32.5873Z" fill="white"/>
</svg>
