<svg width="67" height="69" viewBox="0 0 67 69" fill="none" xmlns="http://www.w3.org/2000/svg">
<g clip-path="url(#clip0_3055_5382)">
<g filter="url(#filter0_i_3055_5382)">
<path fill-rule="evenodd" clip-rule="evenodd" d="M33.5 68.6341C52.0015 68.6341 67 53.2699 67 34.3171C67 15.3643 52.0015 0 33.5 0C14.9985 0 0 15.3643 0 34.3171C0 53.2699 14.9985 68.6341 33.5 68.6341Z" fill="#FCFCFE"/>
</g>
<path fill-rule="evenodd" clip-rule="evenodd" d="M33.4325 0.0244141C32.0891 0.0244141 31 1.11915 31 2.46957C31 3.81998 32.0891 4.91471 33.4325 4.91471C49.2204 4.91471 62.0422 17.7321 62.1351 33.5937C62.143 34.9441 63.2385 36.0323 64.5818 36.0244C65.9252 36.0164 67.0079 34.9153 67 33.5649C66.8913 15.0142 51.8964 0.0244141 33.4325 0.0244141Z" fill="#8A2BE2"/>
<g filter="url(#filter1_d_3055_5382)">
<rect x="17" y="16" width="34" height="34" rx="17" fill="#FAFBFF" shape-rendering="crispEdges"/>
<path fill-rule="evenodd" clip-rule="evenodd" d="M45.1559 24.0013C45.1885 23.8508 45.0459 23.7216 44.8993 23.7686L41.436 24.8803C41.2894 24.9274 41.2488 25.1155 41.3628 25.2189L44.0572 27.6623C44.1712 27.7657 44.3545 27.7069 44.387 27.5564L45.1559 24.0013ZM30.0733 38.1494C30.8858 37.7673 31.1769 36.9025 31.316 36.1933C31.4368 35.5775 31.4831 34.8443 31.527 34.1476C31.5361 34.003 31.5452 33.86 31.5547 33.72C31.6133 32.8629 31.6927 32.0801 31.8934 31.4471C32.0909 30.8243 32.3707 30.4552 32.7603 30.272C33.1661 30.0811 33.6126 30.0975 34.1723 30.3099C34.7514 30.5296 35.3589 30.9239 36.0315 31.3814L36.2124 31.5048C36.8029 31.9079 37.4501 32.3498 38.0809 32.6345C38.7848 32.9522 39.6312 33.1504 40.4693 32.7563C41.6079 32.2209 42.0149 31.2531 42.2852 30.5516C42.3079 30.4928 42.3292 30.4369 42.3496 30.3835C42.4602 30.0936 42.5426 29.8775 42.6505 29.6884C42.7642 29.4889 42.8728 29.3845 43.0063 29.3217C43.3811 29.1455 43.5421 28.6987 43.3659 28.3239C43.1896 27.949 42.7429 27.7881 42.368 27.9643C41.8716 28.1977 41.5612 28.5705 41.3474 28.9454C41.1767 29.2447 41.0468 29.5874 40.9388 29.8724L40.9381 29.8742C40.92 29.922 40.9025 29.9682 40.8856 30.0122C40.6284 30.6794 40.3969 31.1328 39.831 31.3988C39.5751 31.5191 39.237 31.5106 38.6979 31.2673C38.1943 31.04 37.6581 30.6746 37.0379 30.252L37.0379 30.252L36.8751 30.1411C36.22 29.6956 35.4735 29.1993 34.7045 28.9075C33.9161 28.6083 33.0203 28.4921 32.122 28.9145C31.2074 29.3446 30.7282 30.159 30.4636 30.9937C30.2022 31.8181 30.1164 32.7665 30.0582 33.6178C30.0472 33.7794 30.0371 33.9369 30.0273 34.0904V34.0904C29.983 34.7851 29.9441 35.3945 29.8441 35.9045C29.7152 36.5615 29.5384 36.7433 29.435 36.792C29.0705 36.9634 28.8112 37.002 28.6079 36.9984C28.3886 36.9945 28.1903 36.9428 27.899 36.8606L27.8681 36.8518L27.8681 36.8518C27.598 36.7754 27.2383 36.6737 26.8217 36.6633C26.3705 36.6521 25.8901 36.7459 25.3457 37.0019C24.165 37.5571 23.5578 38.759 23.2458 39.6556C23.083 40.1238 22.9831 40.5591 22.9238 40.8764C22.894 41.0358 22.874 41.1674 22.8613 41.2611C22.855 41.308 22.8504 41.3455 22.8474 41.3724L22.8438 41.4046L22.8428 41.4144L22.8425 41.4177L22.8424 41.419L22.8423 41.4195C22.8423 41.4197 22.8423 41.42 23.5511 41.4874L22.8423 41.42C22.8031 41.8323 23.1056 42.1984 23.5179 42.2376C23.9302 42.2768 24.2961 41.9745 24.3355 41.5623L24.3356 41.5619L24.3357 41.5603L24.3377 41.5425C24.3396 41.5255 24.3429 41.4984 24.3478 41.4625C24.3575 41.3907 24.3736 41.284 24.3982 41.1521C24.4479 40.8866 24.5307 40.5275 24.6625 40.1486C24.9401 39.3509 25.3709 38.6476 25.984 38.3593C26.3366 38.1935 26.5868 38.158 26.7843 38.1629C27.0002 38.1682 27.1957 38.2207 27.4915 38.3042L27.5085 38.309C27.7308 38.3717 28.0122 38.4512 28.3381 38.4837C28.4167 38.4916 28.4978 38.4967 28.5813 38.4981C29.0363 38.5062 29.5219 38.4087 30.0733 38.1494Z" fill="#8A2BE2"/>
</g>
</g>
<defs>
<filter id="filter0_i_3055_5382" x="0" y="0" width="69" height="72.6338" filterUnits="userSpaceOnUse" color-interpolation-filters="sRGB">
<feFlood flood-opacity="0" result="BackgroundImageFix"/>
<feBlend mode="normal" in="SourceGraphic" in2="BackgroundImageFix" result="shape"/>
<feColorMatrix in="SourceAlpha" type="matrix" values="0 0 0 0 0 0 0 0 0 0 0 0 0 0 0 0 0 0 127 0" result="hardAlpha"/>
<feOffset dx="2" dy="4"/>
<feGaussianBlur stdDeviation="2"/>
<feComposite in2="hardAlpha" operator="arithmetic" k2="-1" k3="1"/>
<feColorMatrix type="matrix" values="0 0 0 0 0 0 0 0 0 0 0 0 0 0 0 0 0 0 0.1 0"/>
<feBlend mode="normal" in2="shape" result="effect1_innerShadow_3055_5382"/>
</filter>
<filter id="filter1_d_3055_5382" x="5" y="6" width="66" height="66" filterUnits="userSpaceOnUse" color-interpolation-filters="sRGB">
<feFlood flood-opacity="0" result="BackgroundImageFix"/>
<feColorMatrix in="SourceAlpha" type="matrix" values="0 0 0 0 0 0 0 0 0 0 0 0 0 0 0 0 0 0 127 0" result="hardAlpha"/>
<feOffset dx="4" dy="6"/>
<feGaussianBlur stdDeviation="8"/>
<feComposite in2="hardAlpha" operator="out"/>
<feColorMatrix type="matrix" values="0 0 0 0 0 0 0 0 0 0 0 0 0 0 0 0 0 0 0.1 0"/>
<feBlend mode="normal" in2="BackgroundImageFix" result="effect1_dropShadow_3055_5382"/>
<feBlend mode="normal" in="SourceGraphic" in2="effect1_dropShadow_3055_5382" result="shape"/>
</filter>
<clipPath id="clip0_3055_5382">
<rect width="67" height="68.6341" fill="white"/>
</clipPath>
</defs>
</svg>
