<svg width="67" height="70" viewBox="0 0 67 70" fill="none" xmlns="http://www.w3.org/2000/svg">
<g clip-path="url(#clip0_2924_7066)">
<g filter="url(#filter0_i_2924_7066)">
<path fill-rule="evenodd" clip-rule="evenodd" d="M33.5 69.6097C52.0015 69.6097 67 54.2455 67 35.2927C67 16.3399 52.0015 0.975586 33.5 0.975586C14.9985 0.975586 0 16.3399 0 35.2927C0 54.2455 14.9985 69.6097 33.5 69.6097Z" fill="#FCFCFE"/>
</g>
<path fill-rule="evenodd" clip-rule="evenodd" d="M33.8294 1.13379C32.5019 1.13379 31.4258 2.24496 31.4258 3.61567C31.4258 4.98637 32.5019 6.09755 33.8294 6.09755C49.494 6.09755 62.1927 19.2094 62.1927 35.3838C62.1927 51.5581 49.494 64.67 33.8294 64.67C26.3514 64.67 19.337 61.6721 14.0777 56.4016C13.1251 55.447 11.6034 55.4705 10.6788 56.4541C9.75425 57.4377 9.777 59.009 10.7296 59.9636C16.8772 66.1242 25.0886 69.6338 33.8294 69.6338C52.149 69.6338 67 54.2995 67 35.3838C67 16.468 52.149 1.13379 33.8294 1.13379Z" fill="#4379EE"/>
<g filter="url(#filter1_d_2924_7066)">
<rect x="17" y="16.9756" width="34" height="34" rx="17" fill="#FAFBFF" shape-rendering="crispEdges"/>
<path fill-rule="evenodd" clip-rule="evenodd" d="M45.1559 24.9769C45.1885 24.8264 45.0459 24.6971 44.8993 24.7442L41.436 25.8559C41.2894 25.9029 41.2488 26.091 41.3628 26.1945L44.0572 28.6379C44.1712 28.7413 44.3545 28.6825 44.387 28.532L45.1559 24.9769ZM30.0733 39.125C30.8858 38.7429 31.1769 37.8781 31.316 37.1689C31.4368 36.5531 31.4831 35.8199 31.527 35.1231C31.5361 34.9786 31.5452 34.8356 31.5547 34.6956C31.6133 33.8385 31.6927 33.0557 31.8934 32.4227C32.0909 31.7999 32.3707 31.4307 32.7603 31.2475C33.1661 31.0567 33.6126 31.0731 34.1723 31.2855C34.7514 31.5052 35.3589 31.8995 36.0315 32.357L36.2124 32.4803C36.8029 32.8835 37.4501 33.3254 38.0809 33.6101C38.7848 33.9278 39.6312 34.1259 40.4693 33.7319C41.6079 33.1965 42.0149 32.2287 42.2852 31.5271C42.3079 31.4684 42.3292 31.4125 42.3496 31.359C42.4602 31.0692 42.5426 30.8531 42.6505 30.664C42.7642 30.4645 42.8728 30.3601 43.0063 30.2973C43.3811 30.1211 43.5421 29.6743 43.3659 29.2995C43.1896 28.9246 42.7429 28.7636 42.368 28.9399C41.8716 29.1733 41.5612 29.5461 41.3474 29.9209C41.1767 30.2203 41.0468 30.563 40.9388 30.848L40.9381 30.8498C40.92 30.8976 40.9025 30.9438 40.8856 30.9878C40.6284 31.655 40.3969 32.1083 39.831 32.3744C39.5751 32.4947 39.237 32.4862 38.6979 32.2429C38.1943 32.0156 37.6581 31.6502 37.0379 31.2276L37.0379 31.2276L36.8751 31.1167C36.22 30.6712 35.4735 30.1748 34.7045 29.883C33.9161 29.5839 33.0203 29.4677 32.122 29.8901C31.2074 30.3202 30.7282 31.1346 30.4636 31.9693C30.2022 32.7937 30.1164 33.7421 30.0582 34.5934C30.0472 34.7549 30.0371 34.9125 30.0273 35.066V35.066C29.983 35.7607 29.9441 36.3701 29.8441 36.8801C29.7152 37.5371 29.5384 37.7189 29.435 37.7676C29.0705 37.939 28.8112 37.9776 28.6079 37.974C28.3886 37.9701 28.1903 37.9184 27.899 37.8361L27.8681 37.8274L27.8681 37.8274C27.598 37.751 27.2383 37.6493 26.8217 37.6389C26.3705 37.6277 25.8901 37.7215 25.3457 37.9775C24.165 38.5327 23.5578 39.7346 23.2458 40.6312C23.083 41.0994 22.9831 41.5347 22.9238 41.8519C22.894 42.0114 22.874 42.143 22.8613 42.2367C22.855 42.2836 22.8504 42.3211 22.8474 42.348L22.8438 42.3802L22.8428 42.39L22.8425 42.3933L22.8424 42.3946L22.8423 42.3951C22.8423 42.3953 22.8423 42.3955 23.5511 42.4629L22.8423 42.3956C22.8031 42.8079 23.1056 43.174 23.5179 43.2132C23.9302 43.2524 24.2961 42.9501 24.3355 42.5379L24.3356 42.5375L24.3357 42.5358L24.3377 42.5181C24.3396 42.5011 24.3429 42.474 24.3478 42.4381C24.3575 42.3663 24.3736 42.2596 24.3982 42.1276C24.4479 41.8622 24.5307 41.5031 24.6625 41.1241C24.9401 40.3265 25.3709 39.6232 25.984 39.3349C26.3366 39.1691 26.5868 39.1335 26.7843 39.1385C27.0002 39.1438 27.1957 39.1963 27.4915 39.2797L27.5085 39.2845C27.7308 39.3473 28.0122 39.4268 28.3381 39.4593C28.4167 39.4671 28.4978 39.4723 28.5813 39.4737C29.0363 39.4818 29.5219 39.3843 30.0733 39.125Z" fill="#4379EE"/>
</g>
</g>
<defs>
<filter id="filter0_i_2924_7066" x="0" y="0.975586" width="69" height="72.6338" filterUnits="userSpaceOnUse" color-interpolation-filters="sRGB">
<feFlood flood-opacity="0" result="BackgroundImageFix"/>
<feBlend mode="normal" in="SourceGraphic" in2="BackgroundImageFix" result="shape"/>
<feColorMatrix in="SourceAlpha" type="matrix" values="0 0 0 0 0 0 0 0 0 0 0 0 0 0 0 0 0 0 127 0" result="hardAlpha"/>
<feOffset dx="2" dy="4"/>
<feGaussianBlur stdDeviation="2"/>
<feComposite in2="hardAlpha" operator="arithmetic" k2="-1" k3="1"/>
<feColorMatrix type="matrix" values="0 0 0 0 0 0 0 0 0 0 0 0 0 0 0 0 0 0 0.1 0"/>
<feBlend mode="normal" in2="shape" result="effect1_innerShadow_2924_7066"/>
</filter>
<filter id="filter1_d_2924_7066" x="5" y="6.97559" width="66" height="66" filterUnits="userSpaceOnUse" color-interpolation-filters="sRGB">
<feFlood flood-opacity="0" result="BackgroundImageFix"/>
<feColorMatrix in="SourceAlpha" type="matrix" values="0 0 0 0 0 0 0 0 0 0 0 0 0 0 0 0 0 0 127 0" result="hardAlpha"/>
<feOffset dx="4" dy="6"/>
<feGaussianBlur stdDeviation="8"/>
<feComposite in2="hardAlpha" operator="out"/>
<feColorMatrix type="matrix" values="0 0 0 0 0 0 0 0 0 0 0 0 0 0 0 0 0 0 0.1 0"/>
<feBlend mode="normal" in2="BackgroundImageFix" result="effect1_dropShadow_2924_7066"/>
<feBlend mode="normal" in="SourceGraphic" in2="effect1_dropShadow_2924_7066" result="shape"/>
</filter>
<clipPath id="clip0_2924_7066">
<rect width="67" height="68.6341" fill="white" transform="translate(0 0.975586)"/>
</clipPath>
</defs>
</svg>
