<svg width="32" height="32" viewBox="0 0 32 32" fill="none" xmlns="http://www.w3.org/2000/svg">
<g filter="url(#filter0_b_2947_6201)">
<rect width="32" height="32" rx="8" fill="#D0C8D8" fill-opacity="0.4"/>
<path d="M14.33 20.593H8.0293" stroke="white" stroke-opacity="0.8" stroke-width="1.5" stroke-linecap="round" stroke-linejoin="round"/>
<path d="M17.1406 10.9007H23.4413" stroke="white" stroke-opacity="0.8" stroke-width="1.5" stroke-linecap="round" stroke-linejoin="round"/>
<path fill-rule="evenodd" clip-rule="evenodd" d="M12.7263 10.8463C12.7263 9.5506 11.6681 8.5 10.3631 8.5C9.05816 8.5 8 9.5506 8 10.8463C8 12.1419 9.05816 13.1925 10.3631 13.1925C11.6681 13.1925 12.7263 12.1419 12.7263 10.8463Z" stroke="white" stroke-opacity="0.8" stroke-width="1.5" stroke-linecap="round" stroke-linejoin="round"/>
<path fill-rule="evenodd" clip-rule="evenodd" d="M23.9997 20.5533C23.9997 19.2576 22.9424 18.207 21.6374 18.207C20.3316 18.207 19.2734 19.2576 19.2734 20.5533C19.2734 21.8489 20.3316 22.8995 21.6374 22.8995C22.9424 22.8995 23.9997 21.8489 23.9997 20.5533Z" stroke="white" stroke-opacity="0.8" stroke-width="1.5" stroke-linecap="round" stroke-linejoin="round"/>
</g>
<defs>
<filter id="filter0_b_2947_6201" x="-24" y="-24" width="80" height="80" filterUnits="userSpaceOnUse" color-interpolation-filters="sRGB">
<feFlood flood-opacity="0" result="BackgroundImageFix"/>
<feGaussianBlur in="BackgroundImageFix" stdDeviation="12"/>
<feComposite in2="SourceAlpha" operator="in" result="effect1_backgroundBlur_2947_6201"/>
<feBlend mode="normal" in="SourceGraphic" in2="effect1_backgroundBlur_2947_6201" result="shape"/>
</filter>
</defs>
</svg>
