<svg width="64" height="64" viewBox="0 0 64 64" fill="none" xmlns="http://www.w3.org/2000/svg">
<rect width="64" height="64" rx="32" fill="#131517" fill-opacity="0.04"/>
<path d="M38.3998 16.7998H25.5998C22.9488 16.7998 20.7998 18.9488 20.7998 21.5998V42.3998C20.7998 45.0508 22.9488 47.1998 25.5998 47.1998H38.3998C41.0508 47.1998 43.1998 45.0508 43.1998 42.3998V21.5998C43.1998 18.9488 41.0508 16.7998 38.3998 16.7998Z" stroke="#939597" stroke-width="1.6" stroke-linecap="round" stroke-linejoin="round"/>
<path d="M31.9998 16.7998H25.5998C22.9488 16.7998 20.7998 18.9488 20.7998 21.5998V42.3998C20.7998 45.0508 22.9488 47.1998 25.5998 47.1998H31.9998C34.6508 47.1998 36.7998 45.0508 36.7998 42.3998V21.5998C36.7998 18.9488 34.6508 16.7998 31.9998 16.7998Z" stroke="#939597" stroke-width="1.6"/>
<path d="M33.2 33.6002C33.8627 33.6002 34.4 33.0629 34.4 32.4002C34.4 31.7375 33.8627 31.2002 33.2 31.2002C32.5373 31.2002 32 31.7375 32 32.4002C32 33.0629 32.5373 33.6002 33.2 33.6002Z" fill="#939597"/>
<path fill-rule="evenodd" clip-rule="evenodd" d="M36.5332 32.1576C36.5332 31.6957 36.7284 31.2797 37.0409 30.9875L41.9817 26.0659C42.2825 25.7664 42.6898 25.5987 43.1142 25.5996C43.5386 25.6005 43.9452 25.77 44.2447 26.0707C44.5441 26.3714 44.7118 26.7788 44.7109 27.2031C44.71 27.6275 44.5406 28.0342 44.2399 28.3336L42.0073 30.5565H49.8164C50.0265 30.5565 50.2346 30.5979 50.4287 30.6783C50.6228 30.7587 50.7992 30.8766 50.9478 31.0252C51.0963 31.1738 51.2142 31.3501 51.2946 31.5443C51.375 31.7384 51.4164 31.9464 51.4164 32.1565C51.4164 32.3667 51.375 32.5747 51.2946 32.7688C51.2142 32.963 51.0963 33.1393 50.9478 33.2879C50.7992 33.4365 50.6228 33.5543 50.4287 33.6348C50.2346 33.7152 50.0265 33.7565 49.8164 33.7565H42.0063L44.2399 35.9805C44.3888 36.1288 44.507 36.305 44.5878 36.4989C44.6687 36.6929 44.7105 36.9009 44.7109 37.111C44.7114 37.3212 44.6704 37.5293 44.5904 37.7236C44.5104 37.9179 44.3929 38.0946 44.2447 38.2435C44.0964 38.3924 43.9203 38.5106 43.7263 38.5914C43.5323 38.6723 43.3243 38.7141 43.1142 38.7146C42.6898 38.7155 42.2825 38.5477 41.9817 38.2483L37.0047 33.2904C36.8555 33.142 36.7371 32.9657 36.6562 32.7715C36.5753 32.5773 36.5335 32.3691 36.5332 32.1587" fill="#939597"/>
<path d="M36.5332 32.1576C36.5332 31.6957 36.7284 31.2797 37.0409 30.9875L41.9817 26.0659C42.2825 25.7664 42.6898 25.5987 43.1142 25.5996C43.5386 25.6005 43.9452 25.77 44.2447 26.0707C44.5441 26.3714 44.7118 26.7788 44.7109 27.2031C44.71 27.6275 44.5406 28.0342 44.2399 28.3336L42.0073 30.5565H49.8164C50.0265 30.5565 50.2346 30.5979 50.4287 30.6783C50.6228 30.7587 50.7992 30.8766 50.9478 31.0252C51.0963 31.1738 51.2142 31.3501 51.2946 31.5443C51.375 31.7384 51.4164 31.9464 51.4164 32.1565C51.4164 32.3667 51.375 32.5747 51.2946 32.7688C51.2142 32.963 51.0963 33.1393 50.9478 33.2879C50.7992 33.4365 50.6228 33.5543 50.4287 33.6348C50.2346 33.7152 50.0265 33.7565 49.8164 33.7565H42.0063L44.2399 35.9805C44.3888 36.1288 44.507 36.305 44.5878 36.4989C44.6687 36.6929 44.7105 36.9009 44.7109 37.111C44.7114 37.3212 44.6704 37.5293 44.5904 37.7236C44.5104 37.9179 44.3929 38.0946 44.2447 38.2435C44.0964 38.3924 43.9203 38.5106 43.7263 38.5914C43.5323 38.6723 43.3243 38.7141 43.1142 38.7146C42.6898 38.7155 42.2825 38.5477 41.9817 38.2483L37.0047 33.2904C36.8555 33.142 36.7371 32.9657 36.6562 32.7715C36.5753 32.5773 36.5335 32.3691 36.5332 32.1587" stroke="#EBECED" stroke-width="1.06667"/>
</svg>
