<svg width="24" height="24" viewBox="0 0 24 24" fill="none" xmlns="http://www.w3.org/2000/svg">
<path d="M8.5 8.75C8.49999 8.61426 8.46314 8.48106 8.39338 8.36462C8.32362 8.24817 8.22356 8.15284 8.10388 8.08879C7.9842 8.02474 7.84938 7.99438 7.7138 8.00093C7.57821 8.00748 7.44695 8.05071 7.334 8.126L5.834 9.126C5.75087 9.18011 5.6793 9.25017 5.62344 9.33212C5.56757 9.41407 5.52851 9.5063 5.50852 9.60345C5.48854 9.7006 5.48802 9.80075 5.507 9.8981C5.52598 9.99545 5.56408 10.0881 5.6191 10.1706C5.67412 10.2531 5.74496 10.3239 5.82752 10.3789C5.91009 10.4338 6.00273 10.4719 6.1001 10.4908C6.19746 10.5097 6.29761 10.5091 6.39475 10.4891C6.49189 10.469 6.58408 10.4299 6.666 10.374L7 10.151V15.25C7 15.4489 7.07902 15.6397 7.21967 15.7803C7.36032 15.921 7.55109 16 7.75 16C7.94891 16 8.13968 15.921 8.28033 15.7803C8.42098 15.6397 8.5 15.4489 8.5 15.25V8.75ZM17.5 8.75C17.5 8.61426 17.4631 8.48106 17.3934 8.36462C17.3236 8.24817 17.2236 8.15284 17.1039 8.08879C16.9842 8.02474 16.8494 7.99438 16.7138 8.00093C16.5782 8.00748 16.4469 8.05071 16.334 8.126L14.834 9.126C14.7509 9.18011 14.6793 9.25017 14.6234 9.33212C14.5676 9.41407 14.5285 9.5063 14.5085 9.60345C14.4885 9.7006 14.488 9.80075 14.507 9.8981C14.526 9.99545 14.5641 10.0881 14.6191 10.1706C14.6741 10.2531 14.745 10.3239 14.8275 10.3789C14.9101 10.4338 15.0027 10.4719 15.1001 10.4908C15.1975 10.5097 15.2976 10.5091 15.3947 10.4891C15.4919 10.469 15.5841 10.4299 15.666 10.374L16 10.151V15.25C16 15.4489 16.079 15.6397 16.2197 15.7803C16.3603 15.921 16.5511 16 16.75 16C16.9489 16 17.1397 15.921 17.2803 15.7803C17.421 15.6397 17.5 15.4489 17.5 15.25V8.75ZM13 14C13 14.2652 12.8946 14.5196 12.7071 14.7071C12.5196 14.8946 12.2652 15 12 15C11.7348 15 11.4804 14.8946 11.2929 14.7071C11.1054 14.5196 11 14.2652 11 14C11 13.7348 11.1054 13.4804 11.2929 13.2929C11.4804 13.1054 11.7348 13 12 13C12.2652 13 12.5196 13.1054 12.7071 13.2929C12.8946 13.4804 13 13.7348 13 14ZM12 11C12.2652 11 12.5196 10.8946 12.7071 10.7071C12.8946 10.5196 13 10.2652 13 10C13 9.73478 12.8946 9.48043 12.7071 9.29289C12.5196 9.10536 12.2652 9 12 9C11.7348 9 11.4804 9.10536 11.2929 9.29289C11.1054 9.48043 11 9.73478 11 10C11 10.2652 11.1054 10.5196 11.2929 10.7071C11.4804 10.8946 11.7348 11 12 11ZM5.25 4C4.38805 4 3.5614 4.34241 2.9519 4.9519C2.34241 5.5614 2 6.38805 2 7.25V16.75C2 17.612 2.34241 18.4386 2.9519 19.0481C3.5614 19.6576 4.38805 20 5.25 20H18.75C19.1768 20 19.5994 19.9159 19.9937 19.7526C20.388 19.5893 20.7463 19.3499 21.0481 19.0481C21.3499 18.7463 21.5893 18.388 21.7526 17.9937C21.9159 17.5994 22 17.1768 22 16.75V7.25C22 6.8232 21.9159 6.40059 21.7526 6.00628C21.5893 5.61197 21.3499 5.25369 21.0481 4.9519C20.7463 4.65011 20.388 4.41072 19.9937 4.24739C19.5994 4.08406 19.1768 4 18.75 4H5.25ZM3.5 7.25C3.5 6.284 4.284 5.5 5.25 5.5H18.75C19.716 5.5 20.5 6.284 20.5 7.25V16.75C20.5 17.2141 20.3156 17.6592 19.9874 17.9874C19.6592 18.3156 19.2141 18.5 18.75 18.5H5.25C4.78587 18.5 4.34075 18.3156 4.01256 17.9874C3.68437 17.6592 3.5 17.2141 3.5 16.75V7.25Z" fill="white"/>
</svg>
