<svg width="32" height="32" viewBox="0 0 32 32" fill="none" xmlns="http://www.w3.org/2000/svg">
<path d="M22.3998 0.799805H9.5998C6.94884 0.799805 4.7998 2.94884 4.7998 5.5998V26.3998C4.7998 29.0508 6.94884 31.1998 9.5998 31.1998H22.3998C25.0508 31.1998 27.1998 29.0508 27.1998 26.3998V5.5998C27.1998 2.94884 25.0508 0.799805 22.3998 0.799805Z" stroke="#939597" stroke-width="1.6" stroke-linecap="round" stroke-linejoin="round"/>
<path d="M15.9998 0.799805H9.5998C6.94884 0.799805 4.7998 2.94884 4.7998 5.5998V26.3998C4.7998 29.0508 6.94884 31.1998 9.5998 31.1998H15.9998C18.6508 31.1998 20.7998 29.0508 20.7998 26.3998V5.5998C20.7998 2.94884 18.6508 0.799805 15.9998 0.799805Z" stroke="#939597" stroke-width="1.6"/>
<path d="M17.2 17.6002C17.8627 17.6002 18.4 17.0629 18.4 16.4002C18.4 15.7375 17.8627 15.2002 17.2 15.2002C16.5373 15.2002 16 15.7375 16 16.4002C16 17.0629 16.5373 17.6002 17.2 17.6002Z" fill="#939597"/>
</svg>
