<svg width="156" height="45" viewBox="0 0 156 45" fill="none" xmlns="http://www.w3.org/2000/svg">
<path fill-rule="evenodd" clip-rule="evenodd" d="M22.8192 34.8108L14.0681 34.8405C11.9619 34.8405 10.8435 33.67 10.8435 31.6786L10.8926 23.3202C10.8435 21.7007 9.93931 21.003 8.44179 21.003H2.0814C0.906906 21.003 0.000408173 22.1203 0.000408173 23.3202V31.8539C0.000408173 32.9601 0.685005 34.124 2.3033 34.1711C2.3033 34.1711 5.90505 34.2639 8.07842 34.2639C10.2518 34.2639 11.59 34.8405 11.59 37.1402C11.59 39.44 11.5643 41.7092 11.5643 42.874C11.5643 44.0389 12.7625 45 13.9945 45H30.4361C32.9609 44.6042 32.9609 42.874 32.9609 41.2841V13.9877C32.9609 12.3228 32.9609 10.9711 30.5101 10.9711L24.0688 10.8783C22.2674 10.8783 21.4448 9.14576 21.4448 7.44248C21.4448 7.44248 21.4448 3.55276 21.5449 1.70864C21.6451 -0.135477 20.5682 0.00232977 19.3362 0.00232977H2.25146C0.707256 0.00232977 0.19331 0.768037 0.19331 2.22799V7.28327C0.19331 8.74323 0.707256 9.50894 2.25146 9.50894L17.6353 9.46253C19.742 9.46253 22.857 12.2415 22.857 14.2329L22.8381 16.1647L22.8192 34.8108ZM23.7531 1.89104V6.89542C23.7531 7.92731 24.6769 8.76512 25.8147 8.76512H30.8994C32.0372 8.76512 32.9609 7.92731 32.9609 6.89542V1.89104C32.9609 0.859157 32.0372 0.0213492 30.8994 0.0213492H25.8147C24.6769 0.0213492 23.7531 0.859157 23.7531 1.89104Z" fill="#8A2BE2"/>
<path d="M0.213753 43.1303V38.1959C0.213753 37.164 1.13752 36.3262 2.2753 36.3262H7.28602C8.4238 36.3262 9.34757 37.164 9.34757 38.1959V43.1303C9.34757 44.1622 8.4238 45 7.28602 45H2.2753C1.13752 45 0.213753 44.1622 0.213753 43.1303Z" fill="#8A2BE2"/>
<path fill-rule="evenodd" clip-rule="evenodd" d="M56.9242 14.4551L49.7015 14.4835C48.7409 14.4835 47.9609 13.9926 47.9609 13.0995V8.88401C47.9609 7.99091 48.7409 7.5 49.7015 7.5H57.8627C58.6292 7.5 59.5127 8.08791 59.5127 8.80048C59.5127 9.51303 59.5272 13.6266 59.5272 13.6266C59.5272 14.6686 60.2385 16.2012 61.3592 16.2012L64.0812 16.258C65.1766 16.258 66.0661 17.0848 66.0661 18.1033V36.045C66.0661 37.0634 65.4062 37.5 64.3106 37.5H60.6425C59.5468 37.5 58.8869 37.0634 58.8869 36.045L58.9175 17.2799C58.9175 16.0617 58.2346 14.4551 56.9242 14.4551Z" fill="#8A2BE2"/>
<path fill-rule="evenodd" clip-rule="evenodd" d="M73.961 9.36423C73.961 8.21554 73.5228 7.5752 72.8708 7.5752H62.1669C61.5149 7.5752 61.127 8.21554 61.127 9.36423V12.8509C61.127 13.9996 61.5149 14.7144 62.1669 14.7144H72.8708C73.5228 14.7144 73.961 13.9996 73.961 12.8509V9.36423Z" fill="#8A2BE2"/>
<path fill-rule="evenodd" clip-rule="evenodd" d="M102.437 23.1145C101.335 23.844 101.893 24.3246 103.967 26.5052C105.296 27.9032 104.865 30.94 104.961 33.1368C104.957 34.1754 104.961 35.1534 104.933 36.1609C104.918 36.9039 104.78 37.4997 103.563 37.4997C102.288 37.5 99.7182 37.5 98.6159 37.5C97.6962 37.4997 97.3716 37.1601 97.3716 35.8599V33.9111C97.3716 30.8881 96.2815 29.832 95.1727 29.832C92.0212 29.832 89.8242 29.832 86.6107 29.832V36.1373C86.6107 36.4987 86.45 36.8453 86.1642 37.101C85.8787 37.3566 85.4912 37.5 85.0872 37.5H80.4848C80.0804 37.5 79.6932 37.3566 79.4074 37.101C79.1216 36.8453 78.9609 36.4987 78.9609 36.1373V23.8702C78.9609 23.5069 79.1234 23.1586 79.4118 22.9026C79.7002 22.6466 80.091 22.5045 80.4973 22.5075L86.1721 22.5412C86.1721 22.5412 91.5333 22.5108 93.1776 22.5108C95.6021 22.5108 97.7485 21.1312 97.7485 18.9623C97.7485 16.63 95.7902 14.6767 93.1827 14.6767L80.4848 14.6767C80.0804 14.6767 79.6932 14.5333 79.4074 14.2777C79.1216 14.022 78.9609 13.6754 78.9609 13.314V8.86272C78.9609 8.50134 79.1216 8.15468 79.4074 7.89903C79.6932 7.64337 80.0804 7.5 80.4848 7.5L92.7227 7.5C95.5176 7.5 97.8217 7.864 99.6351 8.59201C101.875 9.50005 103.539 10.3431 104.322 12.331C104.569 13.0577 104.805 14.0276 104.914 14.956C104.94 15.2689 104.966 18.6123 104.953 18.9394C104.817 22.5075 103.355 22.5075 102.437 23.1145Z" fill="#8A2BE2"/>
<path d="M109.961 9.27101C109.961 8.29289 110.499 7.5 111.663 7.5C112.86 7.5 115.162 7.5 116.358 7.5C117.522 7.5 118.061 8.29289 118.061 9.27101C118.061 14.6251 118.061 30.3749 118.061 35.729C118.061 36.7071 117.522 37.5 116.358 37.5C115.162 37.5 112.86 37.5 111.663 37.5C110.499 37.5 109.961 36.7071 109.961 35.729C109.961 30.3749 109.961 14.6251 109.961 9.27101Z" fill="#8A2BE2"/>
<path fill-rule="evenodd" clip-rule="evenodd" d="M148.496 37.9135C147.516 37.8885 147.311 37.4744 146.622 36.737C144.39 33.9113 138.772 27.0321 138.772 27.0321C137.655 25.6854 137.685 25.7262 138.716 24.537L140.99 21.8147C141.614 21.1099 141.97 21.7412 142.576 22.5093L154.861 36.1086C155.512 36.9347 155.314 37.9662 154.186 37.9376C153.102 37.9099 149.537 37.9398 148.496 37.9135Z" fill="#8A2BE2"/>
<path fill-rule="evenodd" clip-rule="evenodd" d="M138.062 27.7347C138.238 27.9943 138.228 28.3404 138.037 28.5892C136.688 30.353 132.127 37.1842 132.127 37.1842C131.856 37.5359 131.416 37.7406 130.951 37.7322L125.337 37.6505C124.338 37.6318 124.213 36.4458 124.859 35.5382L132.439 23.9066C132.759 23.4563 132.75 22.8695 132.416 22.428L123.508 9.56678C122.971 8.85715 122.789 7.49975 123.693 7.49975H129.941C130.409 7.49975 130.698 7.71566 130.961 8.07619L137.115 17.3386C137.675 18.1063 138.915 18.1003 139.464 17.3229L145.692 8.09142C145.953 7.72248 146.396 7.49975 146.872 7.49975H152.43C153.459 7.49975 153.533 8.65863 152.835 9.57239L146.014 19.8402C146.013 19.8414 145.016 21.1634 144.471 21.8848C144.29 22.1259 143.781 22.2977 143.574 22.0799C142.129 20.5488 141.41 19.1409 140.508 20.0357C139.672 21.0448 137.685 23.6182 136.842 24.6261C136.028 25.4561 137.297 26.6535 138.062 27.7347Z" fill="#8A2BE2"/>
</svg>
